<mxfile host="Electron" agent="Mozilla/5.0 (Windows NT 10.0; Win64; x64) AppleWebKit/537.36 (KHTML, like Gecko) draw.io/28.2.5 Chrome/138.0.7204.251 Electron/37.6.1 Safari/537.36" version="28.2.5" pages="2">
  <diagram name="Page-1" id="YsM1fsqOsHpBukLXo5hJ">
    <mxGraphModel dx="2226" dy="1241" grid="0" gridSize="10" guides="1" tooltips="1" connect="1" arrows="1" fold="1" page="0" pageScale="1" pageWidth="850" pageHeight="1100" math="0" shadow="0">
      <root>
        <mxCell id="0" />
        <mxCell id="1" parent="0" />
        <mxCell id="OB_NxsBMlXh0sTuPBr3E-8" value="AWS Cloud" style="points=[[0,0],[0.25,0],[0.5,0],[0.75,0],[1,0],[1,0.25],[1,0.5],[1,0.75],[1,1],[0.75,1],[0.5,1],[0.25,1],[0,1],[0,0.75],[0,0.5],[0,0.25]];outlineConnect=0;html=1;whiteSpace=wrap;fontSize=12;fontStyle=0;container=1;pointerEvents=0;collapsible=0;recursiveResize=0;shape=mxgraph.aws4.group;grIcon=mxgraph.aws4.group_aws_cloud_alt;verticalAlign=top;align=left;spacingLeft=30;dashed=0;" parent="1" vertex="1">
          <mxGeometry x="393" y="-34" width="615" height="401" as="geometry" />
        </mxCell>
        <mxCell id="OB_NxsBMlXh0sTuPBr3E-33" style="edgeStyle=orthogonalEdgeStyle;rounded=0;orthogonalLoop=1;jettySize=auto;html=1;exitX=1;exitY=0.5;exitDx=0;exitDy=0;exitPerimeter=0;startArrow=classic;startFill=1;strokeWidth=3;" parent="OB_NxsBMlXh0sTuPBr3E-8" source="OB_NxsBMlXh0sTuPBr3E-9" target="OB_NxsBMlXh0sTuPBr3E-12" edge="1">
          <mxGeometry relative="1" as="geometry" />
        </mxCell>
        <mxCell id="OB_NxsBMlXh0sTuPBr3E-9" value="&lt;font&gt;&lt;b&gt;API Gateway&lt;/b&gt;&lt;/font&gt;" style="sketch=0;points=[[0,0,0],[0.25,0,0],[0.5,0,0],[0.75,0,0],[1,0,0],[0,1,0],[0.25,1,0],[0.5,1,0],[0.75,1,0],[1,1,0],[0,0.25,0],[0,0.5,0],[0,0.75,0],[1,0.25,0],[1,0.5,0],[1,0.75,0]];outlineConnect=0;fontColor=#232F3E;fillColor=#8C4FFF;strokeColor=#ffffff;dashed=0;verticalLabelPosition=bottom;verticalAlign=top;align=center;html=1;fontSize=12;fontStyle=0;aspect=fixed;shape=mxgraph.aws4.resourceIcon;resIcon=mxgraph.aws4.api_gateway;" parent="OB_NxsBMlXh0sTuPBr3E-8" vertex="1">
          <mxGeometry x="75" y="150.5" width="62" height="62" as="geometry" />
        </mxCell>
        <mxCell id="OB_NxsBMlXh0sTuPBr3E-34" style="edgeStyle=orthogonalEdgeStyle;rounded=0;orthogonalLoop=1;jettySize=auto;html=1;exitX=1;exitY=0.5;exitDx=0;exitDy=0;exitPerimeter=0;startArrow=classic;startFill=1;" parent="OB_NxsBMlXh0sTuPBr3E-8" source="OB_NxsBMlXh0sTuPBr3E-12" target="OB_NxsBMlXh0sTuPBr3E-15" edge="1">
          <mxGeometry relative="1" as="geometry" />
        </mxCell>
        <mxCell id="OB_NxsBMlXh0sTuPBr3E-12" value="&lt;b&gt;Lambda function&lt;/b&gt;" style="sketch=0;points=[[0,0,0],[0.25,0,0],[0.5,0,0],[0.75,0,0],[1,0,0],[0,1,0],[0.25,1,0],[0.5,1,0],[0.75,1,0],[1,1,0],[0,0.25,0],[0,0.5,0],[0,0.75,0],[1,0.25,0],[1,0.5,0],[1,0.75,0]];outlineConnect=0;fontColor=#232F3E;fillColor=#ED7100;strokeColor=#ffffff;dashed=0;verticalLabelPosition=bottom;verticalAlign=top;align=center;html=1;fontSize=12;fontStyle=0;aspect=fixed;shape=mxgraph.aws4.resourceIcon;resIcon=mxgraph.aws4.lambda;" parent="OB_NxsBMlXh0sTuPBr3E-8" vertex="1">
          <mxGeometry x="295" y="150.5" width="62" height="62" as="geometry" />
        </mxCell>
        <mxCell id="OB_NxsBMlXh0sTuPBr3E-35" value="" style="edgeStyle=orthogonalEdgeStyle;rounded=0;orthogonalLoop=1;jettySize=auto;html=1;startArrow=classic;startFill=1;strokeWidth=3;" parent="OB_NxsBMlXh0sTuPBr3E-8" source="OB_NxsBMlXh0sTuPBr3E-15" target="OB_NxsBMlXh0sTuPBr3E-12" edge="1">
          <mxGeometry relative="1" as="geometry" />
        </mxCell>
        <UserObject label="&lt;b&gt;DynamoDB&lt;/b&gt;" link="data:page/id,eXXFXmG_AAEnCUxfmGkX" id="OB_NxsBMlXh0sTuPBr3E-15">
          <mxCell style="sketch=0;points=[[0,0,0],[0.25,0,0],[0.5,0,0],[0.75,0,0],[1,0,0],[0,1,0],[0.25,1,0],[0.5,1,0],[0.75,1,0],[1,1,0],[0,0.25,0],[0,0.5,0],[0,0.75,0],[1,0.25,0],[1,0.5,0],[1,0.75,0]];outlineConnect=0;fontColor=#232F3E;fillColor=#C925D1;strokeColor=#ffffff;dashed=0;verticalLabelPosition=bottom;verticalAlign=top;align=center;html=1;fontSize=12;fontStyle=0;aspect=fixed;shape=mxgraph.aws4.resourceIcon;resIcon=mxgraph.aws4.dynamodb;" parent="OB_NxsBMlXh0sTuPBr3E-8" vertex="1">
            <mxGeometry x="476" y="150.5" width="62" height="62" as="geometry" />
          </mxCell>
        </UserObject>
        <mxCell id="OB_NxsBMlXh0sTuPBr3E-32" style="edgeStyle=orthogonalEdgeStyle;rounded=0;orthogonalLoop=1;jettySize=auto;html=1;startArrow=classic;startFill=1;strokeWidth=3;" parent="1" source="OB_NxsBMlXh0sTuPBr3E-18" target="OB_NxsBMlXh0sTuPBr3E-9" edge="1">
          <mxGeometry relative="1" as="geometry" />
        </mxCell>
        <mxCell id="OB_NxsBMlXh0sTuPBr3E-18" value="iPhone (iOS Application)" style="html=1;verticalLabelPosition=bottom;labelBackgroundColor=#ffffff;verticalAlign=top;shadow=0;dashed=0;strokeWidth=1;shape=mxgraph.ios7.misc.iphone;strokeColor=light-dark(#000000, #484848);fillColor=light-dark(#ffbb00, #ededed);" parent="1" vertex="1">
          <mxGeometry x="2" y="-52.5" width="200" height="400" as="geometry" />
        </mxCell>
        <mxCell id="OB_NxsBMlXh0sTuPBr3E-72" style="edgeStyle=orthogonalEdgeStyle;rounded=0;orthogonalLoop=1;jettySize=auto;html=1;entryX=0;entryY=0.5;entryDx=0;entryDy=0;startArrow=classic;startFill=1;strokeWidth=3;" parent="1" source="OB_NxsBMlXh0sTuPBr3E-19" target="OB_NxsBMlXh0sTuPBr3E-71" edge="1">
          <mxGeometry relative="1" as="geometry" />
        </mxCell>
        <mxCell id="OB_NxsBMlXh0sTuPBr3E-79" style="edgeStyle=orthogonalEdgeStyle;rounded=0;orthogonalLoop=1;jettySize=auto;html=1;startArrow=classic;startFill=1;strokeWidth=3;" parent="1" source="OB_NxsBMlXh0sTuPBr3E-19" target="OB_NxsBMlXh0sTuPBr3E-78" edge="1">
          <mxGeometry relative="1" as="geometry">
            <Array as="points">
              <mxPoint x="-278" y="914" />
              <mxPoint x="-278" y="1015" />
            </Array>
          </mxGeometry>
        </mxCell>
        <mxCell id="OB_NxsBMlXh0sTuPBr3E-19" value="iPhone (iOS Application)" style="html=1;verticalLabelPosition=bottom;labelBackgroundColor=#ffffff;verticalAlign=top;shadow=0;dashed=0;strokeWidth=1;shape=mxgraph.ios7.misc.iphone;strokeColor=light-dark(#000000, #484848);fillColor=light-dark(#ffbb00, #ededed);" parent="1" vertex="1">
          <mxGeometry x="-587" y="714" width="200" height="400" as="geometry" />
        </mxCell>
        <mxCell id="OB_NxsBMlXh0sTuPBr3E-42" style="edgeStyle=orthogonalEdgeStyle;rounded=0;orthogonalLoop=1;jettySize=auto;html=1;exitX=1;exitY=0.5;exitDx=0;exitDy=0;startArrow=classic;startFill=1;strokeWidth=3;" parent="1" source="OB_NxsBMlXh0sTuPBr3E-21" target="OB_NxsBMlXh0sTuPBr3E-41" edge="1">
          <mxGeometry relative="1" as="geometry" />
        </mxCell>
        <mxCell id="OB_NxsBMlXh0sTuPBr3E-21" value="&lt;font style=&quot;font-size: 15px;&quot;&gt;&lt;b&gt;/auth/signIn&lt;/b&gt;&lt;/font&gt;" style="rounded=0;whiteSpace=wrap;html=1;strokeColor=#7F00FF;" parent="1" vertex="1">
          <mxGeometry x="197" y="774" width="180" height="60" as="geometry" />
        </mxCell>
        <mxCell id="OB_NxsBMlXh0sTuPBr3E-53" style="edgeStyle=orthogonalEdgeStyle;rounded=0;orthogonalLoop=1;jettySize=auto;html=1;exitX=1;exitY=0.5;exitDx=0;exitDy=0;startArrow=classic;startFill=1;strokeWidth=3;" parent="1" source="OB_NxsBMlXh0sTuPBr3E-22" target="OB_NxsBMlXh0sTuPBr3E-51" edge="1">
          <mxGeometry relative="1" as="geometry" />
        </mxCell>
        <mxCell id="OB_NxsBMlXh0sTuPBr3E-22" value="&lt;b&gt;&lt;font style=&quot;font-size: 15px;&quot;&gt;/auth/delete&lt;/font&gt;&lt;/b&gt;" style="rounded=0;whiteSpace=wrap;html=1;strokeColor=#7F00FF;" parent="1" vertex="1">
          <mxGeometry x="197" y="985" width="180" height="60" as="geometry" />
        </mxCell>
        <mxCell id="OB_NxsBMlXh0sTuPBr3E-57" style="edgeStyle=orthogonalEdgeStyle;rounded=0;orthogonalLoop=1;jettySize=auto;html=1;exitX=1;exitY=0.5;exitDx=0;exitDy=0;startArrow=classic;startFill=1;strokeWidth=3;" parent="1" source="OB_NxsBMlXh0sTuPBr3E-23" target="OB_NxsBMlXh0sTuPBr3E-55" edge="1">
          <mxGeometry relative="1" as="geometry" />
        </mxCell>
        <mxCell id="OB_NxsBMlXh0sTuPBr3E-23" value="&lt;b&gt;&lt;font style=&quot;font-size: 15px;&quot;&gt;/auth/forgotPassword&lt;/font&gt;&lt;/b&gt;" style="rounded=0;whiteSpace=wrap;html=1;strokeColor=#7F00FF;" parent="1" vertex="1">
          <mxGeometry x="210" y="1200" width="180" height="60" as="geometry" />
        </mxCell>
        <mxCell id="OB_NxsBMlXh0sTuPBr3E-28" value="&lt;font style=&quot;font-size: 15px;&quot;&gt;&lt;b&gt;Write data&lt;br&gt;&lt;br&gt;- email&lt;/b&gt;&lt;/font&gt;&lt;div&gt;&lt;font style=&quot;font-size: 15px;&quot;&gt;&lt;b&gt;- password&lt;/b&gt;&lt;/font&gt;&lt;/div&gt;&lt;div&gt;&lt;font style=&quot;font-size: 15px;&quot;&gt;&lt;b&gt;- user type&lt;/b&gt;&lt;/font&gt;&lt;/div&gt;" style="rounded=0;whiteSpace=wrap;html=1;strokeColor=#CC00CC;" parent="1" vertex="1">
          <mxGeometry x="726" y="535" width="180" height="116" as="geometry" />
        </mxCell>
        <mxCell id="OB_NxsBMlXh0sTuPBr3E-39" style="edgeStyle=orthogonalEdgeStyle;rounded=0;orthogonalLoop=1;jettySize=auto;html=1;exitX=1;exitY=0.5;exitDx=0;exitDy=0;startArrow=classic;startFill=1;strokeWidth=3;" parent="1" source="OB_NxsBMlXh0sTuPBr3E-29" target="OB_NxsBMlXh0sTuPBr3E-38" edge="1">
          <mxGeometry relative="1" as="geometry" />
        </mxCell>
        <mxCell id="OB_NxsBMlXh0sTuPBr3E-29" value="&lt;font style=&quot;font-size: 15px;&quot;&gt;&lt;b&gt;/auth/signUp&lt;/b&gt;&lt;/font&gt;" style="rounded=0;whiteSpace=wrap;html=1;strokeColor=#7F00FF;" parent="1" vertex="1">
          <mxGeometry x="200" y="563" width="180" height="60" as="geometry" />
        </mxCell>
        <mxCell id="OB_NxsBMlXh0sTuPBr3E-30" value="&lt;b&gt;API Gateway&lt;/b&gt;" style="sketch=0;points=[[0,0,0],[0.25,0,0],[0.5,0,0],[0.75,0,0],[1,0,0],[0,1,0],[0.25,1,0],[0.5,1,0],[0.75,1,0],[1,1,0],[0,0.25,0],[0,0.5,0],[0,0.75,0],[1,0.25,0],[1,0.5,0],[1,0.75,0]];outlineConnect=0;fontColor=#232F3E;fillColor=#8C4FFF;strokeColor=#ffffff;dashed=0;verticalLabelPosition=bottom;verticalAlign=top;align=center;html=1;fontSize=12;fontStyle=0;aspect=fixed;shape=mxgraph.aws4.resourceIcon;resIcon=mxgraph.aws4.api_gateway;" parent="1" vertex="1">
          <mxGeometry x="259" y="435" width="62" height="62" as="geometry" />
        </mxCell>
        <mxCell id="OB_NxsBMlXh0sTuPBr3E-31" value="&lt;b&gt;DynamoDB&lt;/b&gt;" style="sketch=0;points=[[0,0,0],[0.25,0,0],[0.5,0,0],[0.75,0,0],[1,0,0],[0,1,0],[0.25,1,0],[0.5,1,0],[0.75,1,0],[1,1,0],[0,0.25,0],[0,0.5,0],[0,0.75,0],[1,0.25,0],[1,0.5,0],[1,0.75,0]];outlineConnect=0;fontColor=#232F3E;fillColor=#C925D1;strokeColor=#ffffff;dashed=0;verticalLabelPosition=bottom;verticalAlign=top;align=center;html=1;fontSize=12;fontStyle=0;aspect=fixed;shape=mxgraph.aws4.resourceIcon;resIcon=mxgraph.aws4.dynamodb;" parent="1" vertex="1">
          <mxGeometry x="785" y="432" width="62" height="62" as="geometry" />
        </mxCell>
        <mxCell id="OB_NxsBMlXh0sTuPBr3E-37" value="&lt;b&gt;Lambda function&lt;/b&gt;" style="sketch=0;points=[[0,0,0],[0.25,0,0],[0.5,0,0],[0.75,0,0],[1,0,0],[0,1,0],[0.25,1,0],[0.5,1,0],[0.75,1,0],[1,1,0],[0,0.25,0],[0,0.5,0],[0,0.75,0],[1,0.25,0],[1,0.5,0],[1,0.75,0]];outlineConnect=0;fontColor=#232F3E;fillColor=#ED7100;strokeColor=#ffffff;dashed=0;verticalLabelPosition=bottom;verticalAlign=top;align=center;html=1;fontSize=12;fontStyle=0;aspect=fixed;shape=mxgraph.aws4.resourceIcon;resIcon=mxgraph.aws4.lambda;" parent="1" vertex="1">
          <mxGeometry x="526" y="435" width="62" height="62" as="geometry" />
        </mxCell>
        <mxCell id="OB_NxsBMlXh0sTuPBr3E-40" style="edgeStyle=orthogonalEdgeStyle;rounded=0;orthogonalLoop=1;jettySize=auto;html=1;exitX=1;exitY=0.5;exitDx=0;exitDy=0;startArrow=classic;startFill=1;strokeWidth=3;" parent="1" source="OB_NxsBMlXh0sTuPBr3E-38" target="OB_NxsBMlXh0sTuPBr3E-28" edge="1">
          <mxGeometry relative="1" as="geometry" />
        </mxCell>
        <mxCell id="OB_NxsBMlXh0sTuPBr3E-38" value="&lt;font style=&quot;font-size: 15px;&quot;&gt;&lt;b&gt;Python&lt;/b&gt;&lt;/font&gt;" style="ellipse;whiteSpace=wrap;html=1;aspect=fixed;strokeColor=#FF8000;" parent="1" vertex="1">
          <mxGeometry x="516" y="553" width="80" height="80" as="geometry" />
        </mxCell>
        <mxCell id="OB_NxsBMlXh0sTuPBr3E-44" style="edgeStyle=orthogonalEdgeStyle;rounded=0;orthogonalLoop=1;jettySize=auto;html=1;exitX=1;exitY=0.5;exitDx=0;exitDy=0;entryX=0;entryY=0.5;entryDx=0;entryDy=0;startArrow=classic;startFill=1;strokeWidth=3;" parent="1" source="OB_NxsBMlXh0sTuPBr3E-41" target="OB_NxsBMlXh0sTuPBr3E-43" edge="1">
          <mxGeometry relative="1" as="geometry" />
        </mxCell>
        <mxCell id="OB_NxsBMlXh0sTuPBr3E-41" value="&lt;font style=&quot;font-size: 15px;&quot;&gt;&lt;b&gt;Python&lt;/b&gt;&lt;/font&gt;" style="ellipse;whiteSpace=wrap;html=1;aspect=fixed;strokeColor=#FF8000;" parent="1" vertex="1">
          <mxGeometry x="513" y="764" width="80" height="80" as="geometry" />
        </mxCell>
        <mxCell id="OB_NxsBMlXh0sTuPBr3E-43" value="&lt;div&gt;&lt;span style=&quot;font-size: 15px;&quot;&gt;&lt;b&gt;Read data&lt;/b&gt;&lt;/span&gt;&lt;/div&gt;&lt;div&gt;&lt;span style=&quot;font-size: 15px;&quot;&gt;&lt;b&gt;&lt;br&gt;&lt;/b&gt;&lt;/span&gt;&lt;/div&gt;&lt;span style=&quot;font-size: 15px;&quot;&gt;&lt;b&gt;- user type&lt;/b&gt;&lt;/span&gt;" style="rounded=0;whiteSpace=wrap;html=1;strokeColor=#CC00CC;" parent="1" vertex="1">
          <mxGeometry x="720" y="764" width="180" height="80" as="geometry" />
        </mxCell>
        <mxCell id="OB_NxsBMlXh0sTuPBr3E-46" value="&lt;b&gt;&lt;font style=&quot;font-size: 15px;&quot;&gt;POST&lt;/font&gt;&lt;/b&gt;" style="text;html=1;align=center;verticalAlign=middle;resizable=0;points=[];autosize=1;strokeColor=none;fillColor=none;" parent="1" vertex="1">
          <mxGeometry x="115" y="559" width="59" height="30" as="geometry" />
        </mxCell>
        <mxCell id="OB_NxsBMlXh0sTuPBr3E-47" value="&lt;b&gt;&lt;font style=&quot;font-size: 15px;&quot;&gt;DELETE&lt;/font&gt;&lt;/b&gt;" style="text;html=1;align=center;verticalAlign=middle;resizable=0;points=[];autosize=1;strokeColor=none;fillColor=none;" parent="1" vertex="1">
          <mxGeometry x="102" y="982" width="77" height="30" as="geometry" />
        </mxCell>
        <mxCell id="OB_NxsBMlXh0sTuPBr3E-48" value="&lt;b&gt;&lt;font style=&quot;font-size: 15px;&quot;&gt;POST&lt;/font&gt;&lt;/b&gt;" style="text;html=1;align=center;verticalAlign=middle;resizable=0;points=[];autosize=1;strokeColor=none;fillColor=none;" parent="1" vertex="1">
          <mxGeometry x="117" y="1193" width="59" height="30" as="geometry" />
        </mxCell>
        <mxCell id="OB_NxsBMlXh0sTuPBr3E-49" value="&lt;b&gt;&lt;font style=&quot;font-size: 15px;&quot;&gt;GET&lt;/font&gt;&lt;/b&gt;" style="text;html=1;align=center;verticalAlign=middle;resizable=0;points=[];autosize=1;strokeColor=none;fillColor=none;" parent="1" vertex="1">
          <mxGeometry x="117" y="771" width="49" height="30" as="geometry" />
        </mxCell>
        <mxCell id="OB_NxsBMlXh0sTuPBr3E-50" style="edgeStyle=orthogonalEdgeStyle;rounded=0;orthogonalLoop=1;jettySize=auto;html=1;exitX=1;exitY=0.5;exitDx=0;exitDy=0;entryX=0;entryY=0.5;entryDx=0;entryDy=0;startArrow=classic;startFill=1;strokeWidth=3;" parent="1" source="OB_NxsBMlXh0sTuPBr3E-51" target="OB_NxsBMlXh0sTuPBr3E-52" edge="1">
          <mxGeometry relative="1" as="geometry" />
        </mxCell>
        <mxCell id="OB_NxsBMlXh0sTuPBr3E-51" value="&lt;font style=&quot;font-size: 15px;&quot;&gt;&lt;b&gt;Python&lt;/b&gt;&lt;/font&gt;" style="ellipse;whiteSpace=wrap;html=1;aspect=fixed;strokeColor=#FF8000;" parent="1" vertex="1">
          <mxGeometry x="513" y="975" width="80" height="80" as="geometry" />
        </mxCell>
        <mxCell id="OB_NxsBMlXh0sTuPBr3E-52" value="&lt;font style=&quot;font-size: 15px;&quot;&gt;&lt;b style=&quot;&quot;&gt;Remove data&lt;/b&gt;&lt;/font&gt;" style="rounded=0;whiteSpace=wrap;html=1;strokeColor=#CC00CC;" parent="1" vertex="1">
          <mxGeometry x="720" y="975" width="180" height="80" as="geometry" />
        </mxCell>
        <mxCell id="OB_NxsBMlXh0sTuPBr3E-54" style="edgeStyle=orthogonalEdgeStyle;rounded=0;orthogonalLoop=1;jettySize=auto;html=1;exitX=1;exitY=0.5;exitDx=0;exitDy=0;entryX=0;entryY=0.5;entryDx=0;entryDy=0;startArrow=classic;startFill=1;strokeWidth=3;" parent="1" source="OB_NxsBMlXh0sTuPBr3E-55" target="OB_NxsBMlXh0sTuPBr3E-56" edge="1">
          <mxGeometry relative="1" as="geometry" />
        </mxCell>
        <mxCell id="OB_NxsBMlXh0sTuPBr3E-55" value="&lt;font style=&quot;font-size: 15px;&quot;&gt;&lt;b&gt;Python&lt;/b&gt;&lt;/font&gt;" style="ellipse;whiteSpace=wrap;html=1;aspect=fixed;strokeColor=#FF8000;" parent="1" vertex="1">
          <mxGeometry x="526" y="1190" width="80" height="80" as="geometry" />
        </mxCell>
        <mxCell id="OB_NxsBMlXh0sTuPBr3E-56" value="&lt;span style=&quot;font-size: 15px;&quot;&gt;&lt;b&gt;Write data&lt;/b&gt;&lt;/span&gt;&lt;div&gt;&lt;span style=&quot;font-size: 15px;&quot;&gt;&lt;b&gt;&lt;br&gt;&lt;/b&gt;&lt;/span&gt;&lt;/div&gt;&lt;div&gt;&lt;span style=&quot;font-size: 15px;&quot;&gt;&lt;b&gt;- new pasword&lt;/b&gt;&lt;/span&gt;&lt;/div&gt;" style="rounded=0;whiteSpace=wrap;html=1;strokeColor=#CC00CC;" parent="1" vertex="1">
          <mxGeometry x="733" y="1190" width="180" height="80" as="geometry" />
        </mxCell>
        <mxCell id="OB_NxsBMlXh0sTuPBr3E-73" style="edgeStyle=orthogonalEdgeStyle;rounded=0;orthogonalLoop=1;jettySize=auto;html=1;exitX=1;exitY=0.5;exitDx=0;exitDy=0;entryX=0;entryY=0.5;entryDx=0;entryDy=0;startArrow=classic;startFill=1;strokeWidth=3;" parent="1" source="OB_NxsBMlXh0sTuPBr3E-71" target="OB_NxsBMlXh0sTuPBr3E-29" edge="1">
          <mxGeometry relative="1" as="geometry" />
        </mxCell>
        <mxCell id="OB_NxsBMlXh0sTuPBr3E-71" value="&lt;div style=&quot;text-align: center;&quot;&gt;&lt;b style=&quot;font-size: 15px; background-color: transparent; color: light-dark(rgb(0, 0, 0), rgb(255, 255, 255));&quot;&gt;Request body&lt;/b&gt;&lt;/div&gt;&lt;div&gt;&lt;b&gt;&lt;br&gt;&lt;/b&gt;&lt;/div&gt;&lt;div&gt;&lt;div&gt;&lt;b&gt;&lt;font style=&quot;font-size: 15px;&quot;&gt;{&lt;/font&gt;&lt;/b&gt;&lt;/div&gt;&lt;div&gt;&lt;b&gt;&lt;font style=&quot;font-size: 15px;&quot;&gt;&amp;nbsp; &quot;email&quot;: &quot;user@example.com&quot;,&lt;/font&gt;&lt;/b&gt;&lt;/div&gt;&lt;div&gt;&lt;b&gt;&lt;font style=&quot;font-size: 15px;&quot;&gt;&amp;nbsp; &quot;password&quot;: &quot;P@ssw0rd!23&quot;,&lt;/font&gt;&lt;/b&gt;&lt;/div&gt;&lt;div&gt;&lt;b&gt;&lt;font style=&quot;font-size: 15px;&quot;&gt;&amp;nbsp; &quot;userType&quot;: &quot;Mechanic&quot;&lt;/font&gt;&lt;/b&gt;&lt;/div&gt;&lt;div&gt;&lt;b&gt;&lt;font style=&quot;font-size: 15px;&quot;&gt;}&lt;/font&gt;&lt;/b&gt;&lt;/div&gt;&lt;/div&gt;&lt;div&gt;&lt;br&gt;&lt;/div&gt;" style="rounded=0;whiteSpace=wrap;html=1;strokeColor=#000000;align=left;" parent="1" vertex="1">
          <mxGeometry x="-165" y="504.5" width="246" height="177" as="geometry" />
        </mxCell>
        <mxCell id="OB_NxsBMlXh0sTuPBr3E-77" style="edgeStyle=orthogonalEdgeStyle;rounded=0;orthogonalLoop=1;jettySize=auto;html=1;startArrow=classic;startFill=1;strokeWidth=3;" parent="1" source="OB_NxsBMlXh0sTuPBr3E-75" target="OB_NxsBMlXh0sTuPBr3E-21" edge="1">
          <mxGeometry relative="1" as="geometry" />
        </mxCell>
        <mxCell id="OB_NxsBMlXh0sTuPBr3E-75" value="&lt;span style=&quot;font-size: 15px;&quot;&gt;&lt;b&gt;Request body&lt;/b&gt;&lt;/span&gt;&lt;br&gt;&lt;div&gt;&lt;br&gt;&lt;/div&gt;&lt;div&gt;&lt;div style=&quot;text-align: left;&quot;&gt;&lt;b style=&quot;&quot;&gt;&lt;font style=&quot;font-size: 15px;&quot;&gt;{&lt;/font&gt;&lt;/b&gt;&lt;/div&gt;&lt;div style=&quot;text-align: left;&quot;&gt;&lt;b&gt;&lt;font style=&quot;font-size: 15px;&quot;&gt;&amp;nbsp; &quot;email&quot;: &quot;user@example.com&quot;,&lt;/font&gt;&lt;/b&gt;&lt;/div&gt;&lt;div style=&quot;text-align: left;&quot;&gt;&lt;b&gt;&lt;font style=&quot;font-size: 15px;&quot;&gt;&amp;nbsp; &quot;password&quot;: &quot;P@ssw0rd!23&quot;&lt;/font&gt;&lt;/b&gt;&lt;/div&gt;&lt;div style=&quot;text-align: left;&quot;&gt;&lt;b style=&quot;&quot;&gt;&lt;font style=&quot;font-size: 15px;&quot;&gt;}&lt;/font&gt;&lt;/b&gt;&lt;/div&gt;&lt;/div&gt;&lt;div&gt;&lt;br&gt;&lt;/div&gt;" style="rounded=0;whiteSpace=wrap;html=1;strokeColor=#000000;" parent="1" vertex="1">
          <mxGeometry x="-172" y="730.5" width="253" height="147" as="geometry" />
        </mxCell>
        <mxCell id="OB_NxsBMlXh0sTuPBr3E-76" style="edgeStyle=orthogonalEdgeStyle;rounded=0;orthogonalLoop=1;jettySize=auto;html=1;exitX=0;exitY=0.5;exitDx=0;exitDy=0;entryX=0.996;entryY=0.496;entryDx=0;entryDy=0;entryPerimeter=0;strokeWidth=3;startArrow=classic;startFill=1;" parent="1" source="OB_NxsBMlXh0sTuPBr3E-75" target="OB_NxsBMlXh0sTuPBr3E-19" edge="1">
          <mxGeometry relative="1" as="geometry">
            <Array as="points">
              <mxPoint x="-276" y="804" />
              <mxPoint x="-276" y="912" />
            </Array>
          </mxGeometry>
        </mxCell>
        <mxCell id="OB_NxsBMlXh0sTuPBr3E-80" style="edgeStyle=orthogonalEdgeStyle;rounded=0;orthogonalLoop=1;jettySize=auto;html=1;exitX=1;exitY=0.5;exitDx=0;exitDy=0;entryX=0;entryY=0.5;entryDx=0;entryDy=0;startArrow=classic;startFill=1;strokeWidth=3;" parent="1" source="OB_NxsBMlXh0sTuPBr3E-78" target="OB_NxsBMlXh0sTuPBr3E-22" edge="1">
          <mxGeometry relative="1" as="geometry" />
        </mxCell>
        <mxCell id="OB_NxsBMlXh0sTuPBr3E-78" value="&lt;span style=&quot;font-size: 15px;&quot;&gt;&lt;b&gt;Request body&lt;/b&gt;&lt;/span&gt;&lt;br&gt;&lt;div&gt;&lt;br&gt;&lt;/div&gt;&lt;div&gt;&lt;div style=&quot;text-align: left;&quot;&gt;&lt;b&gt;&lt;font style=&quot;font-size: 15px;&quot;&gt;{&lt;/font&gt;&lt;/b&gt;&lt;/div&gt;&lt;div style=&quot;text-align: left;&quot;&gt;&lt;b&gt;&lt;font style=&quot;font-size: 15px;&quot;&gt;&amp;nbsp; &quot;email&quot;: &quot;user@example.com&quot;,&lt;/font&gt;&lt;/b&gt;&lt;/div&gt;&lt;div style=&quot;text-align: left;&quot;&gt;&lt;b&gt;&lt;font style=&quot;font-size: 15px;&quot;&gt;&amp;nbsp; &quot;password&quot;: &quot;P@ssw0rd!23&quot;&lt;/font&gt;&lt;/b&gt;&lt;/div&gt;&lt;div style=&quot;text-align: left;&quot;&gt;&lt;b&gt;&lt;font style=&quot;font-size: 15px;&quot;&gt;}&lt;/font&gt;&lt;/b&gt;&lt;/div&gt;&lt;/div&gt;&lt;div&gt;&lt;br&gt;&lt;/div&gt;" style="rounded=0;whiteSpace=wrap;html=1;strokeColor=#000000;" parent="1" vertex="1">
          <mxGeometry x="-179" y="949" width="251" height="132" as="geometry" />
        </mxCell>
        <mxCell id="OB_NxsBMlXh0sTuPBr3E-82" style="edgeStyle=orthogonalEdgeStyle;rounded=0;orthogonalLoop=1;jettySize=auto;html=1;exitX=1;exitY=0.5;exitDx=0;exitDy=0;startArrow=classic;startFill=1;strokeWidth=3;" parent="1" source="OB_NxsBMlXh0sTuPBr3E-81" target="OB_NxsBMlXh0sTuPBr3E-23" edge="1">
          <mxGeometry relative="1" as="geometry" />
        </mxCell>
        <mxCell id="OB_NxsBMlXh0sTuPBr3E-81" value="&lt;span style=&quot;font-size: 15px;&quot;&gt;&lt;b&gt;Request body&lt;/b&gt;&lt;/span&gt;&lt;br&gt;&lt;div&gt;&lt;br&gt;&lt;/div&gt;&lt;div&gt;&lt;div style=&quot;text-align: left;&quot;&gt;&lt;b&gt;&lt;font style=&quot;font-size: 15px;&quot;&gt;{&lt;/font&gt;&lt;/b&gt;&lt;/div&gt;&lt;div style=&quot;text-align: left;&quot;&gt;&lt;b&gt;&lt;font style=&quot;font-size: 15px;&quot;&gt;&amp;nbsp; &quot;email&quot;: &quot;user@example.com&quot;,&lt;/font&gt;&lt;/b&gt;&lt;/div&gt;&lt;div style=&quot;text-align: left;&quot;&gt;&lt;font style=&quot;&quot;&gt;&lt;span style=&quot;font-size: 15px;&quot;&gt;&lt;b&gt;&amp;nbsp; &quot;new_password&quot;: &quot;N3wP@ssw0rd!45&quot;&lt;/b&gt;&lt;/span&gt;&lt;/font&gt;&lt;/div&gt;&lt;div style=&quot;text-align: left;&quot;&gt;&lt;b&gt;&lt;font style=&quot;font-size: 15px;&quot;&gt;}&lt;/font&gt;&lt;/b&gt;&lt;/div&gt;&lt;/div&gt;&lt;div&gt;&lt;br&gt;&lt;/div&gt;" style="rounded=0;whiteSpace=wrap;html=1;strokeColor=#000000;" parent="1" vertex="1">
          <mxGeometry x="-214" y="1158.5" width="297" height="143" as="geometry" />
        </mxCell>
        <mxCell id="OB_NxsBMlXh0sTuPBr3E-83" style="edgeStyle=orthogonalEdgeStyle;rounded=0;orthogonalLoop=1;jettySize=auto;html=1;exitX=0;exitY=0.5;exitDx=0;exitDy=0;entryX=0.996;entryY=0.496;entryDx=0;entryDy=0;entryPerimeter=0;strokeWidth=3;startArrow=classic;startFill=1;" parent="1" source="OB_NxsBMlXh0sTuPBr3E-81" target="OB_NxsBMlXh0sTuPBr3E-19" edge="1">
          <mxGeometry relative="1" as="geometry">
            <Array as="points">
              <mxPoint x="-279" y="1230" />
              <mxPoint x="-279" y="912" />
            </Array>
          </mxGeometry>
        </mxCell>
      </root>
    </mxGraphModel>
  </diagram>
  <diagram id="eXXFXmG_AAEnCUxfmGkX" name="Database">
    <mxGraphModel dx="3252" dy="2082" grid="0" gridSize="10" guides="1" tooltips="1" connect="1" arrows="1" fold="1" page="0" pageScale="1" pageWidth="850" pageHeight="1100" math="0" shadow="0">
      <root>
        <mxCell id="0" />
        <mxCell id="1" parent="0" />
        <mxCell id="YwwxXZjCzcob2F3ZB6ca-14" value="Mechanic" style="swimlane;whiteSpace=wrap;html=1;fillColor=#fff2cc;strokeColor=#d6b656;" vertex="1" parent="1">
          <mxGeometry x="-255" y="-22" width="1069" height="1199" as="geometry" />
        </mxCell>
        <mxCell id="YwwxXZjCzcob2F3ZB6ca-1" value="" style="shape=table;startSize=0;container=1;collapsible=0;childLayout=tableLayout;fontSize=16;" vertex="1" parent="YwwxXZjCzcob2F3ZB6ca-14">
          <mxGeometry x="51" y="54" width="979.75" height="520" as="geometry" />
        </mxCell>
        <mxCell id="YwwxXZjCzcob2F3ZB6ca-2" value="" style="shape=tableRow;horizontal=0;startSize=0;swimlaneHead=0;swimlaneBody=0;strokeColor=inherit;top=0;left=0;bottom=0;right=0;collapsible=0;dropTarget=0;fillColor=none;points=[[0,0.5],[1,0.5]];portConstraint=eastwest;fontSize=16;" vertex="1" parent="YwwxXZjCzcob2F3ZB6ca-1">
          <mxGeometry width="979.75" height="40" as="geometry" />
        </mxCell>
        <mxCell id="YwwxXZjCzcob2F3ZB6ca-3" value="PK" style="shape=partialRectangle;html=1;whiteSpace=wrap;connectable=0;strokeColor=inherit;overflow=hidden;fillColor=none;top=0;left=0;bottom=0;right=0;pointerEvents=1;fontSize=16;" vertex="1" parent="YwwxXZjCzcob2F3ZB6ca-2">
          <mxGeometry width="244" height="40" as="geometry">
            <mxRectangle width="244" height="40" as="alternateBounds" />
          </mxGeometry>
        </mxCell>
        <mxCell id="YwwxXZjCzcob2F3ZB6ca-4" value="SK" style="shape=partialRectangle;html=1;whiteSpace=wrap;connectable=0;strokeColor=inherit;overflow=hidden;fillColor=none;top=0;left=0;bottom=0;right=0;pointerEvents=1;fontSize=16;" vertex="1" parent="YwwxXZjCzcob2F3ZB6ca-2">
          <mxGeometry x="244" width="243" height="40" as="geometry">
            <mxRectangle width="243" height="40" as="alternateBounds" />
          </mxGeometry>
        </mxCell>
        <mxCell id="YwwxXZjCzcob2F3ZB6ca-5" value="Workshop location" style="shape=partialRectangle;html=1;whiteSpace=wrap;connectable=0;strokeColor=inherit;overflow=hidden;fillColor=none;top=0;left=0;bottom=0;right=0;pointerEvents=1;fontSize=16;" vertex="1" parent="YwwxXZjCzcob2F3ZB6ca-2">
          <mxGeometry x="487" width="139" height="40" as="geometry">
            <mxRectangle width="139" height="40" as="alternateBounds" />
          </mxGeometry>
        </mxCell>
        <mxCell id="YwwxXZjCzcob2F3ZB6ca-51" value="Appoiment date" style="shape=partialRectangle;html=1;whiteSpace=wrap;connectable=0;strokeColor=inherit;overflow=hidden;fillColor=none;top=0;left=0;bottom=0;right=0;pointerEvents=1;fontSize=16;" vertex="1" parent="YwwxXZjCzcob2F3ZB6ca-2">
          <mxGeometry x="626" width="168" height="40" as="geometry">
            <mxRectangle width="168" height="40" as="alternateBounds" />
          </mxGeometry>
        </mxCell>
        <mxCell id="YwwxXZjCzcob2F3ZB6ca-60" value="Vechicle model" style="shape=partialRectangle;html=1;whiteSpace=wrap;connectable=0;strokeColor=inherit;overflow=hidden;fillColor=none;top=0;left=0;bottom=0;right=0;pointerEvents=1;fontSize=16;" vertex="1" parent="YwwxXZjCzcob2F3ZB6ca-2">
          <mxGeometry x="794" width="186" height="40" as="geometry">
            <mxRectangle width="186" height="40" as="alternateBounds" />
          </mxGeometry>
        </mxCell>
        <mxCell id="YwwxXZjCzcob2F3ZB6ca-6" value="" style="shape=tableRow;horizontal=0;startSize=0;swimlaneHead=0;swimlaneBody=0;strokeColor=inherit;top=0;left=0;bottom=0;right=0;collapsible=0;dropTarget=0;fillColor=none;points=[[0,0.5],[1,0.5]];portConstraint=eastwest;fontSize=16;" vertex="1" parent="YwwxXZjCzcob2F3ZB6ca-1">
          <mxGeometry y="40" width="979.75" height="40" as="geometry" />
        </mxCell>
        <mxCell id="YwwxXZjCzcob2F3ZB6ca-7" value="M#1" style="shape=partialRectangle;html=1;whiteSpace=wrap;connectable=0;strokeColor=inherit;overflow=hidden;fillColor=none;top=0;left=0;bottom=0;right=0;pointerEvents=1;fontSize=16;rowspan=2;colspan=1;" vertex="1" parent="YwwxXZjCzcob2F3ZB6ca-6">
          <mxGeometry width="244" height="80" as="geometry">
            <mxRectangle width="244" height="40" as="alternateBounds" />
          </mxGeometry>
        </mxCell>
        <mxCell id="YwwxXZjCzcob2F3ZB6ca-8" value="WKSH#1" style="shape=partialRectangle;html=1;whiteSpace=wrap;connectable=0;strokeColor=inherit;overflow=hidden;fillColor=none;top=0;left=0;bottom=0;right=0;pointerEvents=1;fontSize=16;" vertex="1" parent="YwwxXZjCzcob2F3ZB6ca-6">
          <mxGeometry x="244" width="243" height="40" as="geometry">
            <mxRectangle width="243" height="40" as="alternateBounds" />
          </mxGeometry>
        </mxCell>
        <mxCell id="YwwxXZjCzcob2F3ZB6ca-9" value="" style="shape=partialRectangle;html=1;whiteSpace=wrap;connectable=0;strokeColor=inherit;overflow=hidden;fillColor=none;top=0;left=0;bottom=0;right=0;pointerEvents=1;fontSize=16;" vertex="1" parent="YwwxXZjCzcob2F3ZB6ca-6">
          <mxGeometry x="487" width="139" height="40" as="geometry">
            <mxRectangle width="139" height="40" as="alternateBounds" />
          </mxGeometry>
        </mxCell>
        <mxCell id="YwwxXZjCzcob2F3ZB6ca-52" style="shape=partialRectangle;html=1;whiteSpace=wrap;connectable=0;strokeColor=inherit;overflow=hidden;fillColor=none;top=0;left=0;bottom=0;right=0;pointerEvents=1;fontSize=16;" vertex="1" parent="YwwxXZjCzcob2F3ZB6ca-6">
          <mxGeometry x="626" width="168" height="40" as="geometry">
            <mxRectangle width="168" height="40" as="alternateBounds" />
          </mxGeometry>
        </mxCell>
        <mxCell id="YwwxXZjCzcob2F3ZB6ca-61" style="shape=partialRectangle;html=1;whiteSpace=wrap;connectable=0;strokeColor=inherit;overflow=hidden;fillColor=none;top=0;left=0;bottom=0;right=0;pointerEvents=1;fontSize=16;" vertex="1" parent="YwwxXZjCzcob2F3ZB6ca-6">
          <mxGeometry x="794" width="186" height="40" as="geometry">
            <mxRectangle width="186" height="40" as="alternateBounds" />
          </mxGeometry>
        </mxCell>
        <mxCell id="YwwxXZjCzcob2F3ZB6ca-10" value="" style="shape=tableRow;horizontal=0;startSize=0;swimlaneHead=0;swimlaneBody=0;strokeColor=inherit;top=0;left=0;bottom=0;right=0;collapsible=0;dropTarget=0;fillColor=none;points=[[0,0.5],[1,0.5]];portConstraint=eastwest;fontSize=16;" vertex="1" parent="YwwxXZjCzcob2F3ZB6ca-1">
          <mxGeometry y="80" width="979.75" height="40" as="geometry" />
        </mxCell>
        <mxCell id="YwwxXZjCzcob2F3ZB6ca-11" value="" style="shape=partialRectangle;html=1;whiteSpace=wrap;connectable=0;strokeColor=inherit;overflow=hidden;fillColor=none;top=0;left=0;bottom=0;right=0;pointerEvents=1;fontSize=16;" vertex="1" visible="0" parent="YwwxXZjCzcob2F3ZB6ca-10">
          <mxGeometry width="244" height="40" as="geometry">
            <mxRectangle width="244" height="40" as="alternateBounds" />
          </mxGeometry>
        </mxCell>
        <mxCell id="YwwxXZjCzcob2F3ZB6ca-12" value="WKSH#2" style="shape=partialRectangle;html=1;whiteSpace=wrap;connectable=0;strokeColor=inherit;overflow=hidden;fillColor=none;top=0;left=0;bottom=0;right=0;pointerEvents=1;fontSize=16;" vertex="1" parent="YwwxXZjCzcob2F3ZB6ca-10">
          <mxGeometry x="244" width="243" height="40" as="geometry">
            <mxRectangle width="243" height="40" as="alternateBounds" />
          </mxGeometry>
        </mxCell>
        <mxCell id="YwwxXZjCzcob2F3ZB6ca-13" value="" style="shape=partialRectangle;html=1;whiteSpace=wrap;connectable=0;strokeColor=inherit;overflow=hidden;fillColor=none;top=0;left=0;bottom=0;right=0;pointerEvents=1;fontSize=16;" vertex="1" parent="YwwxXZjCzcob2F3ZB6ca-10">
          <mxGeometry x="487" width="139" height="40" as="geometry">
            <mxRectangle width="139" height="40" as="alternateBounds" />
          </mxGeometry>
        </mxCell>
        <mxCell id="YwwxXZjCzcob2F3ZB6ca-53" style="shape=partialRectangle;html=1;whiteSpace=wrap;connectable=0;strokeColor=inherit;overflow=hidden;fillColor=none;top=0;left=0;bottom=0;right=0;pointerEvents=1;fontSize=16;" vertex="1" parent="YwwxXZjCzcob2F3ZB6ca-10">
          <mxGeometry x="626" width="168" height="40" as="geometry">
            <mxRectangle width="168" height="40" as="alternateBounds" />
          </mxGeometry>
        </mxCell>
        <mxCell id="YwwxXZjCzcob2F3ZB6ca-62" style="shape=partialRectangle;html=1;whiteSpace=wrap;connectable=0;strokeColor=inherit;overflow=hidden;fillColor=none;top=0;left=0;bottom=0;right=0;pointerEvents=1;fontSize=16;" vertex="1" parent="YwwxXZjCzcob2F3ZB6ca-10">
          <mxGeometry x="794" width="186" height="40" as="geometry">
            <mxRectangle width="186" height="40" as="alternateBounds" />
          </mxGeometry>
        </mxCell>
        <mxCell id="YwwxXZjCzcob2F3ZB6ca-23" style="shape=tableRow;horizontal=0;startSize=0;swimlaneHead=0;swimlaneBody=0;strokeColor=inherit;top=0;left=0;bottom=0;right=0;collapsible=0;dropTarget=0;fillColor=none;points=[[0,0.5],[1,0.5]];portConstraint=eastwest;fontSize=16;" vertex="1" parent="YwwxXZjCzcob2F3ZB6ca-1">
          <mxGeometry y="120" width="979.75" height="40" as="geometry" />
        </mxCell>
        <mxCell id="YwwxXZjCzcob2F3ZB6ca-24" value="M#1" style="shape=partialRectangle;html=1;whiteSpace=wrap;connectable=0;strokeColor=inherit;overflow=hidden;fillColor=none;top=0;left=0;bottom=0;right=0;pointerEvents=1;fontSize=16;rowspan=2;colspan=1;" vertex="1" parent="YwwxXZjCzcob2F3ZB6ca-23">
          <mxGeometry width="244" height="80" as="geometry">
            <mxRectangle width="244" height="40" as="alternateBounds" />
          </mxGeometry>
        </mxCell>
        <mxCell id="YwwxXZjCzcob2F3ZB6ca-25" value="APPO#1" style="shape=partialRectangle;html=1;whiteSpace=wrap;connectable=0;strokeColor=inherit;overflow=hidden;fillColor=none;top=0;left=0;bottom=0;right=0;pointerEvents=1;fontSize=16;" vertex="1" parent="YwwxXZjCzcob2F3ZB6ca-23">
          <mxGeometry x="244" width="243" height="40" as="geometry">
            <mxRectangle width="243" height="40" as="alternateBounds" />
          </mxGeometry>
        </mxCell>
        <mxCell id="YwwxXZjCzcob2F3ZB6ca-26" style="shape=partialRectangle;html=1;whiteSpace=wrap;connectable=0;strokeColor=inherit;overflow=hidden;fillColor=none;top=0;left=0;bottom=0;right=0;pointerEvents=1;fontSize=16;" vertex="1" parent="YwwxXZjCzcob2F3ZB6ca-23">
          <mxGeometry x="487" width="139" height="40" as="geometry">
            <mxRectangle width="139" height="40" as="alternateBounds" />
          </mxGeometry>
        </mxCell>
        <mxCell id="YwwxXZjCzcob2F3ZB6ca-54" style="shape=partialRectangle;html=1;whiteSpace=wrap;connectable=0;strokeColor=inherit;overflow=hidden;fillColor=none;top=0;left=0;bottom=0;right=0;pointerEvents=1;fontSize=16;" vertex="1" parent="YwwxXZjCzcob2F3ZB6ca-23">
          <mxGeometry x="626" width="168" height="40" as="geometry">
            <mxRectangle width="168" height="40" as="alternateBounds" />
          </mxGeometry>
        </mxCell>
        <mxCell id="YwwxXZjCzcob2F3ZB6ca-63" style="shape=partialRectangle;html=1;whiteSpace=wrap;connectable=0;strokeColor=inherit;overflow=hidden;fillColor=none;top=0;left=0;bottom=0;right=0;pointerEvents=1;fontSize=16;" vertex="1" parent="YwwxXZjCzcob2F3ZB6ca-23">
          <mxGeometry x="794" width="186" height="40" as="geometry">
            <mxRectangle width="186" height="40" as="alternateBounds" />
          </mxGeometry>
        </mxCell>
        <mxCell id="YwwxXZjCzcob2F3ZB6ca-19" style="shape=tableRow;horizontal=0;startSize=0;swimlaneHead=0;swimlaneBody=0;strokeColor=inherit;top=0;left=0;bottom=0;right=0;collapsible=0;dropTarget=0;fillColor=none;points=[[0,0.5],[1,0.5]];portConstraint=eastwest;fontSize=16;" vertex="1" parent="YwwxXZjCzcob2F3ZB6ca-1">
          <mxGeometry y="160" width="979.75" height="40" as="geometry" />
        </mxCell>
        <mxCell id="YwwxXZjCzcob2F3ZB6ca-20" style="shape=partialRectangle;html=1;whiteSpace=wrap;connectable=0;strokeColor=inherit;overflow=hidden;fillColor=none;top=0;left=0;bottom=0;right=0;pointerEvents=1;fontSize=16;" vertex="1" visible="0" parent="YwwxXZjCzcob2F3ZB6ca-19">
          <mxGeometry width="244" height="40" as="geometry">
            <mxRectangle width="244" height="40" as="alternateBounds" />
          </mxGeometry>
        </mxCell>
        <mxCell id="YwwxXZjCzcob2F3ZB6ca-21" value="APPO#2" style="shape=partialRectangle;html=1;whiteSpace=wrap;connectable=0;strokeColor=inherit;overflow=hidden;fillColor=none;top=0;left=0;bottom=0;right=0;pointerEvents=1;fontSize=16;" vertex="1" parent="YwwxXZjCzcob2F3ZB6ca-19">
          <mxGeometry x="244" width="243" height="40" as="geometry">
            <mxRectangle width="243" height="40" as="alternateBounds" />
          </mxGeometry>
        </mxCell>
        <mxCell id="YwwxXZjCzcob2F3ZB6ca-22" style="shape=partialRectangle;html=1;whiteSpace=wrap;connectable=0;strokeColor=inherit;overflow=hidden;fillColor=none;top=0;left=0;bottom=0;right=0;pointerEvents=1;fontSize=16;" vertex="1" parent="YwwxXZjCzcob2F3ZB6ca-19">
          <mxGeometry x="487" width="139" height="40" as="geometry">
            <mxRectangle width="139" height="40" as="alternateBounds" />
          </mxGeometry>
        </mxCell>
        <mxCell id="YwwxXZjCzcob2F3ZB6ca-55" style="shape=partialRectangle;html=1;whiteSpace=wrap;connectable=0;strokeColor=inherit;overflow=hidden;fillColor=none;top=0;left=0;bottom=0;right=0;pointerEvents=1;fontSize=16;" vertex="1" parent="YwwxXZjCzcob2F3ZB6ca-19">
          <mxGeometry x="626" width="168" height="40" as="geometry">
            <mxRectangle width="168" height="40" as="alternateBounds" />
          </mxGeometry>
        </mxCell>
        <mxCell id="YwwxXZjCzcob2F3ZB6ca-64" style="shape=partialRectangle;html=1;whiteSpace=wrap;connectable=0;strokeColor=inherit;overflow=hidden;fillColor=none;top=0;left=0;bottom=0;right=0;pointerEvents=1;fontSize=16;" vertex="1" parent="YwwxXZjCzcob2F3ZB6ca-19">
          <mxGeometry x="794" width="186" height="40" as="geometry">
            <mxRectangle width="186" height="40" as="alternateBounds" />
          </mxGeometry>
        </mxCell>
        <mxCell id="YwwxXZjCzcob2F3ZB6ca-47" style="shape=tableRow;horizontal=0;startSize=0;swimlaneHead=0;swimlaneBody=0;strokeColor=inherit;top=0;left=0;bottom=0;right=0;collapsible=0;dropTarget=0;fillColor=none;points=[[0,0.5],[1,0.5]];portConstraint=eastwest;fontSize=16;" vertex="1" parent="YwwxXZjCzcob2F3ZB6ca-1">
          <mxGeometry y="200" width="979.75" height="40" as="geometry" />
        </mxCell>
        <mxCell id="YwwxXZjCzcob2F3ZB6ca-48" value="C#1" style="shape=partialRectangle;html=1;whiteSpace=wrap;connectable=0;strokeColor=inherit;overflow=hidden;fillColor=none;top=0;left=0;bottom=0;right=0;pointerEvents=1;fontSize=16;rowspan=2;colspan=1;" vertex="1" parent="YwwxXZjCzcob2F3ZB6ca-47">
          <mxGeometry width="244" height="80" as="geometry">
            <mxRectangle width="244" height="40" as="alternateBounds" />
          </mxGeometry>
        </mxCell>
        <mxCell id="YwwxXZjCzcob2F3ZB6ca-49" value="APPO#1" style="shape=partialRectangle;html=1;whiteSpace=wrap;connectable=0;strokeColor=inherit;overflow=hidden;fillColor=none;top=0;left=0;bottom=0;right=0;pointerEvents=1;fontSize=16;" vertex="1" parent="YwwxXZjCzcob2F3ZB6ca-47">
          <mxGeometry x="244" width="243" height="40" as="geometry">
            <mxRectangle width="243" height="40" as="alternateBounds" />
          </mxGeometry>
        </mxCell>
        <mxCell id="YwwxXZjCzcob2F3ZB6ca-50" style="shape=partialRectangle;html=1;whiteSpace=wrap;connectable=0;strokeColor=inherit;overflow=hidden;fillColor=none;top=0;left=0;bottom=0;right=0;pointerEvents=1;fontSize=16;" vertex="1" parent="YwwxXZjCzcob2F3ZB6ca-47">
          <mxGeometry x="487" width="139" height="40" as="geometry">
            <mxRectangle width="139" height="40" as="alternateBounds" />
          </mxGeometry>
        </mxCell>
        <mxCell id="YwwxXZjCzcob2F3ZB6ca-56" style="shape=partialRectangle;html=1;whiteSpace=wrap;connectable=0;strokeColor=inherit;overflow=hidden;fillColor=none;top=0;left=0;bottom=0;right=0;pointerEvents=1;fontSize=16;" vertex="1" parent="YwwxXZjCzcob2F3ZB6ca-47">
          <mxGeometry x="626" width="168" height="40" as="geometry">
            <mxRectangle width="168" height="40" as="alternateBounds" />
          </mxGeometry>
        </mxCell>
        <mxCell id="YwwxXZjCzcob2F3ZB6ca-65" style="shape=partialRectangle;html=1;whiteSpace=wrap;connectable=0;strokeColor=inherit;overflow=hidden;fillColor=none;top=0;left=0;bottom=0;right=0;pointerEvents=1;fontSize=16;" vertex="1" parent="YwwxXZjCzcob2F3ZB6ca-47">
          <mxGeometry x="794" width="186" height="40" as="geometry">
            <mxRectangle width="186" height="40" as="alternateBounds" />
          </mxGeometry>
        </mxCell>
        <mxCell id="YwwxXZjCzcob2F3ZB6ca-43" style="shape=tableRow;horizontal=0;startSize=0;swimlaneHead=0;swimlaneBody=0;strokeColor=inherit;top=0;left=0;bottom=0;right=0;collapsible=0;dropTarget=0;fillColor=none;points=[[0,0.5],[1,0.5]];portConstraint=eastwest;fontSize=16;" vertex="1" parent="YwwxXZjCzcob2F3ZB6ca-1">
          <mxGeometry y="240" width="979.75" height="40" as="geometry" />
        </mxCell>
        <mxCell id="YwwxXZjCzcob2F3ZB6ca-44" style="shape=partialRectangle;html=1;whiteSpace=wrap;connectable=0;strokeColor=inherit;overflow=hidden;fillColor=none;top=0;left=0;bottom=0;right=0;pointerEvents=1;fontSize=16;" vertex="1" visible="0" parent="YwwxXZjCzcob2F3ZB6ca-43">
          <mxGeometry width="244" height="40" as="geometry">
            <mxRectangle width="244" height="40" as="alternateBounds" />
          </mxGeometry>
        </mxCell>
        <mxCell id="YwwxXZjCzcob2F3ZB6ca-45" value="APPO#3" style="shape=partialRectangle;html=1;whiteSpace=wrap;connectable=0;strokeColor=inherit;overflow=hidden;fillColor=none;top=0;left=0;bottom=0;right=0;pointerEvents=1;fontSize=16;" vertex="1" parent="YwwxXZjCzcob2F3ZB6ca-43">
          <mxGeometry x="244" width="243" height="40" as="geometry">
            <mxRectangle width="243" height="40" as="alternateBounds" />
          </mxGeometry>
        </mxCell>
        <mxCell id="YwwxXZjCzcob2F3ZB6ca-46" style="shape=partialRectangle;html=1;whiteSpace=wrap;connectable=0;strokeColor=inherit;overflow=hidden;fillColor=none;top=0;left=0;bottom=0;right=0;pointerEvents=1;fontSize=16;" vertex="1" parent="YwwxXZjCzcob2F3ZB6ca-43">
          <mxGeometry x="487" width="139" height="40" as="geometry">
            <mxRectangle width="139" height="40" as="alternateBounds" />
          </mxGeometry>
        </mxCell>
        <mxCell id="YwwxXZjCzcob2F3ZB6ca-57" style="shape=partialRectangle;html=1;whiteSpace=wrap;connectable=0;strokeColor=inherit;overflow=hidden;fillColor=none;top=0;left=0;bottom=0;right=0;pointerEvents=1;fontSize=16;" vertex="1" parent="YwwxXZjCzcob2F3ZB6ca-43">
          <mxGeometry x="626" width="168" height="40" as="geometry">
            <mxRectangle width="168" height="40" as="alternateBounds" />
          </mxGeometry>
        </mxCell>
        <mxCell id="YwwxXZjCzcob2F3ZB6ca-66" style="shape=partialRectangle;html=1;whiteSpace=wrap;connectable=0;strokeColor=inherit;overflow=hidden;fillColor=none;top=0;left=0;bottom=0;right=0;pointerEvents=1;fontSize=16;" vertex="1" parent="YwwxXZjCzcob2F3ZB6ca-43">
          <mxGeometry x="794" width="186" height="40" as="geometry">
            <mxRectangle width="186" height="40" as="alternateBounds" />
          </mxGeometry>
        </mxCell>
        <mxCell id="YwwxXZjCzcob2F3ZB6ca-39" style="shape=tableRow;horizontal=0;startSize=0;swimlaneHead=0;swimlaneBody=0;strokeColor=inherit;top=0;left=0;bottom=0;right=0;collapsible=0;dropTarget=0;fillColor=none;points=[[0,0.5],[1,0.5]];portConstraint=eastwest;fontSize=16;" vertex="1" parent="YwwxXZjCzcob2F3ZB6ca-1">
          <mxGeometry y="280" width="979.75" height="40" as="geometry" />
        </mxCell>
        <mxCell id="YwwxXZjCzcob2F3ZB6ca-40" value="C#2" style="shape=partialRectangle;html=1;whiteSpace=wrap;connectable=0;strokeColor=inherit;overflow=hidden;fillColor=none;top=0;left=0;bottom=0;right=0;pointerEvents=1;fontSize=16;rowspan=2;colspan=1;" vertex="1" parent="YwwxXZjCzcob2F3ZB6ca-39">
          <mxGeometry width="244" height="80" as="geometry">
            <mxRectangle width="244" height="40" as="alternateBounds" />
          </mxGeometry>
        </mxCell>
        <mxCell id="YwwxXZjCzcob2F3ZB6ca-41" value="APPO#2" style="shape=partialRectangle;html=1;whiteSpace=wrap;connectable=0;strokeColor=inherit;overflow=hidden;fillColor=none;top=0;left=0;bottom=0;right=0;pointerEvents=1;fontSize=16;" vertex="1" parent="YwwxXZjCzcob2F3ZB6ca-39">
          <mxGeometry x="244" width="243" height="40" as="geometry">
            <mxRectangle width="243" height="40" as="alternateBounds" />
          </mxGeometry>
        </mxCell>
        <mxCell id="YwwxXZjCzcob2F3ZB6ca-42" style="shape=partialRectangle;html=1;whiteSpace=wrap;connectable=0;strokeColor=inherit;overflow=hidden;fillColor=none;top=0;left=0;bottom=0;right=0;pointerEvents=1;fontSize=16;" vertex="1" parent="YwwxXZjCzcob2F3ZB6ca-39">
          <mxGeometry x="487" width="139" height="40" as="geometry">
            <mxRectangle width="139" height="40" as="alternateBounds" />
          </mxGeometry>
        </mxCell>
        <mxCell id="YwwxXZjCzcob2F3ZB6ca-58" style="shape=partialRectangle;html=1;whiteSpace=wrap;connectable=0;strokeColor=inherit;overflow=hidden;fillColor=none;top=0;left=0;bottom=0;right=0;pointerEvents=1;fontSize=16;" vertex="1" parent="YwwxXZjCzcob2F3ZB6ca-39">
          <mxGeometry x="626" width="168" height="40" as="geometry">
            <mxRectangle width="168" height="40" as="alternateBounds" />
          </mxGeometry>
        </mxCell>
        <mxCell id="YwwxXZjCzcob2F3ZB6ca-67" style="shape=partialRectangle;html=1;whiteSpace=wrap;connectable=0;strokeColor=inherit;overflow=hidden;fillColor=none;top=0;left=0;bottom=0;right=0;pointerEvents=1;fontSize=16;" vertex="1" parent="YwwxXZjCzcob2F3ZB6ca-39">
          <mxGeometry x="794" width="186" height="40" as="geometry">
            <mxRectangle width="186" height="40" as="alternateBounds" />
          </mxGeometry>
        </mxCell>
        <mxCell id="YwwxXZjCzcob2F3ZB6ca-35" style="shape=tableRow;horizontal=0;startSize=0;swimlaneHead=0;swimlaneBody=0;strokeColor=inherit;top=0;left=0;bottom=0;right=0;collapsible=0;dropTarget=0;fillColor=none;points=[[0,0.5],[1,0.5]];portConstraint=eastwest;fontSize=16;" vertex="1" parent="YwwxXZjCzcob2F3ZB6ca-1">
          <mxGeometry y="320" width="979.75" height="40" as="geometry" />
        </mxCell>
        <mxCell id="YwwxXZjCzcob2F3ZB6ca-36" style="shape=partialRectangle;html=1;whiteSpace=wrap;connectable=0;strokeColor=inherit;overflow=hidden;fillColor=none;top=0;left=0;bottom=0;right=0;pointerEvents=1;fontSize=16;" vertex="1" visible="0" parent="YwwxXZjCzcob2F3ZB6ca-35">
          <mxGeometry width="244" height="40" as="geometry">
            <mxRectangle width="244" height="40" as="alternateBounds" />
          </mxGeometry>
        </mxCell>
        <mxCell id="YwwxXZjCzcob2F3ZB6ca-37" value="APPO#4" style="shape=partialRectangle;html=1;whiteSpace=wrap;connectable=0;strokeColor=inherit;overflow=hidden;fillColor=none;top=0;left=0;bottom=0;right=0;pointerEvents=1;fontSize=16;" vertex="1" parent="YwwxXZjCzcob2F3ZB6ca-35">
          <mxGeometry x="244" width="243" height="40" as="geometry">
            <mxRectangle width="243" height="40" as="alternateBounds" />
          </mxGeometry>
        </mxCell>
        <mxCell id="YwwxXZjCzcob2F3ZB6ca-38" style="shape=partialRectangle;html=1;whiteSpace=wrap;connectable=0;strokeColor=inherit;overflow=hidden;fillColor=none;top=0;left=0;bottom=0;right=0;pointerEvents=1;fontSize=16;" vertex="1" parent="YwwxXZjCzcob2F3ZB6ca-35">
          <mxGeometry x="487" width="139" height="40" as="geometry">
            <mxRectangle width="139" height="40" as="alternateBounds" />
          </mxGeometry>
        </mxCell>
        <mxCell id="YwwxXZjCzcob2F3ZB6ca-59" style="shape=partialRectangle;html=1;whiteSpace=wrap;connectable=0;strokeColor=inherit;overflow=hidden;fillColor=none;top=0;left=0;bottom=0;right=0;pointerEvents=1;fontSize=16;" vertex="1" parent="YwwxXZjCzcob2F3ZB6ca-35">
          <mxGeometry x="626" width="168" height="40" as="geometry">
            <mxRectangle width="168" height="40" as="alternateBounds" />
          </mxGeometry>
        </mxCell>
        <mxCell id="YwwxXZjCzcob2F3ZB6ca-68" style="shape=partialRectangle;html=1;whiteSpace=wrap;connectable=0;strokeColor=inherit;overflow=hidden;fillColor=none;top=0;left=0;bottom=0;right=0;pointerEvents=1;fontSize=16;" vertex="1" parent="YwwxXZjCzcob2F3ZB6ca-35">
          <mxGeometry x="794" width="186" height="40" as="geometry">
            <mxRectangle width="186" height="40" as="alternateBounds" />
          </mxGeometry>
        </mxCell>
        <mxCell id="YwwxXZjCzcob2F3ZB6ca-69" style="shape=tableRow;horizontal=0;startSize=0;swimlaneHead=0;swimlaneBody=0;strokeColor=inherit;top=0;left=0;bottom=0;right=0;collapsible=0;dropTarget=0;fillColor=none;points=[[0,0.5],[1,0.5]];portConstraint=eastwest;fontSize=16;" vertex="1" parent="YwwxXZjCzcob2F3ZB6ca-1">
          <mxGeometry y="360" width="979.75" height="40" as="geometry" />
        </mxCell>
        <mxCell id="YwwxXZjCzcob2F3ZB6ca-70" value="C#1" style="shape=partialRectangle;html=1;whiteSpace=wrap;connectable=0;strokeColor=inherit;overflow=hidden;fillColor=none;top=0;left=0;bottom=0;right=0;pointerEvents=1;fontSize=16;rowspan=2;colspan=1;" vertex="1" parent="YwwxXZjCzcob2F3ZB6ca-69">
          <mxGeometry width="244" height="80" as="geometry">
            <mxRectangle width="244" height="40" as="alternateBounds" />
          </mxGeometry>
        </mxCell>
        <mxCell id="YwwxXZjCzcob2F3ZB6ca-71" value="VEHI#1" style="shape=partialRectangle;html=1;whiteSpace=wrap;connectable=0;strokeColor=inherit;overflow=hidden;fillColor=none;top=0;left=0;bottom=0;right=0;pointerEvents=1;fontSize=16;" vertex="1" parent="YwwxXZjCzcob2F3ZB6ca-69">
          <mxGeometry x="244" width="243" height="40" as="geometry">
            <mxRectangle width="243" height="40" as="alternateBounds" />
          </mxGeometry>
        </mxCell>
        <mxCell id="YwwxXZjCzcob2F3ZB6ca-72" style="shape=partialRectangle;html=1;whiteSpace=wrap;connectable=0;strokeColor=inherit;overflow=hidden;fillColor=none;top=0;left=0;bottom=0;right=0;pointerEvents=1;fontSize=16;" vertex="1" parent="YwwxXZjCzcob2F3ZB6ca-69">
          <mxGeometry x="487" width="139" height="40" as="geometry">
            <mxRectangle width="139" height="40" as="alternateBounds" />
          </mxGeometry>
        </mxCell>
        <mxCell id="YwwxXZjCzcob2F3ZB6ca-73" style="shape=partialRectangle;html=1;whiteSpace=wrap;connectable=0;strokeColor=inherit;overflow=hidden;fillColor=none;top=0;left=0;bottom=0;right=0;pointerEvents=1;fontSize=16;" vertex="1" parent="YwwxXZjCzcob2F3ZB6ca-69">
          <mxGeometry x="626" width="168" height="40" as="geometry">
            <mxRectangle width="168" height="40" as="alternateBounds" />
          </mxGeometry>
        </mxCell>
        <mxCell id="YwwxXZjCzcob2F3ZB6ca-74" style="shape=partialRectangle;html=1;whiteSpace=wrap;connectable=0;strokeColor=inherit;overflow=hidden;fillColor=none;top=0;left=0;bottom=0;right=0;pointerEvents=1;fontSize=16;" vertex="1" parent="YwwxXZjCzcob2F3ZB6ca-69">
          <mxGeometry x="794" width="186" height="40" as="geometry">
            <mxRectangle width="186" height="40" as="alternateBounds" />
          </mxGeometry>
        </mxCell>
        <mxCell id="YwwxXZjCzcob2F3ZB6ca-75" style="shape=tableRow;horizontal=0;startSize=0;swimlaneHead=0;swimlaneBody=0;strokeColor=inherit;top=0;left=0;bottom=0;right=0;collapsible=0;dropTarget=0;fillColor=none;points=[[0,0.5],[1,0.5]];portConstraint=eastwest;fontSize=16;" vertex="1" parent="YwwxXZjCzcob2F3ZB6ca-1">
          <mxGeometry y="400" width="979.75" height="40" as="geometry" />
        </mxCell>
        <mxCell id="YwwxXZjCzcob2F3ZB6ca-76" style="shape=partialRectangle;html=1;whiteSpace=wrap;connectable=0;strokeColor=inherit;overflow=hidden;fillColor=none;top=0;left=0;bottom=0;right=0;pointerEvents=1;fontSize=16;" vertex="1" visible="0" parent="YwwxXZjCzcob2F3ZB6ca-75">
          <mxGeometry width="244" height="40" as="geometry">
            <mxRectangle width="244" height="40" as="alternateBounds" />
          </mxGeometry>
        </mxCell>
        <mxCell id="YwwxXZjCzcob2F3ZB6ca-77" value="VEHI#2" style="shape=partialRectangle;html=1;whiteSpace=wrap;connectable=0;strokeColor=inherit;overflow=hidden;fillColor=none;top=0;left=0;bottom=0;right=0;pointerEvents=1;fontSize=16;" vertex="1" parent="YwwxXZjCzcob2F3ZB6ca-75">
          <mxGeometry x="244" width="243" height="40" as="geometry">
            <mxRectangle width="243" height="40" as="alternateBounds" />
          </mxGeometry>
        </mxCell>
        <mxCell id="YwwxXZjCzcob2F3ZB6ca-78" style="shape=partialRectangle;html=1;whiteSpace=wrap;connectable=0;strokeColor=inherit;overflow=hidden;fillColor=none;top=0;left=0;bottom=0;right=0;pointerEvents=1;fontSize=16;" vertex="1" parent="YwwxXZjCzcob2F3ZB6ca-75">
          <mxGeometry x="487" width="139" height="40" as="geometry">
            <mxRectangle width="139" height="40" as="alternateBounds" />
          </mxGeometry>
        </mxCell>
        <mxCell id="YwwxXZjCzcob2F3ZB6ca-79" style="shape=partialRectangle;html=1;whiteSpace=wrap;connectable=0;strokeColor=inherit;overflow=hidden;fillColor=none;top=0;left=0;bottom=0;right=0;pointerEvents=1;fontSize=16;" vertex="1" parent="YwwxXZjCzcob2F3ZB6ca-75">
          <mxGeometry x="626" width="168" height="40" as="geometry">
            <mxRectangle width="168" height="40" as="alternateBounds" />
          </mxGeometry>
        </mxCell>
        <mxCell id="YwwxXZjCzcob2F3ZB6ca-80" style="shape=partialRectangle;html=1;whiteSpace=wrap;connectable=0;strokeColor=inherit;overflow=hidden;fillColor=none;top=0;left=0;bottom=0;right=0;pointerEvents=1;fontSize=16;" vertex="1" parent="YwwxXZjCzcob2F3ZB6ca-75">
          <mxGeometry x="794" width="186" height="40" as="geometry">
            <mxRectangle width="186" height="40" as="alternateBounds" />
          </mxGeometry>
        </mxCell>
        <mxCell id="YwwxXZjCzcob2F3ZB6ca-81" style="shape=tableRow;horizontal=0;startSize=0;swimlaneHead=0;swimlaneBody=0;strokeColor=inherit;top=0;left=0;bottom=0;right=0;collapsible=0;dropTarget=0;fillColor=none;points=[[0,0.5],[1,0.5]];portConstraint=eastwest;fontSize=16;" vertex="1" parent="YwwxXZjCzcob2F3ZB6ca-1">
          <mxGeometry y="440" width="979.75" height="40" as="geometry" />
        </mxCell>
        <mxCell id="YwwxXZjCzcob2F3ZB6ca-82" value="C#2" style="shape=partialRectangle;html=1;whiteSpace=wrap;connectable=0;strokeColor=inherit;overflow=hidden;fillColor=none;top=0;left=0;bottom=0;right=0;pointerEvents=1;fontSize=16;rowspan=2;colspan=1;" vertex="1" parent="YwwxXZjCzcob2F3ZB6ca-81">
          <mxGeometry width="244" height="80" as="geometry">
            <mxRectangle width="244" height="40" as="alternateBounds" />
          </mxGeometry>
        </mxCell>
        <mxCell id="YwwxXZjCzcob2F3ZB6ca-83" value="VEHI#3" style="shape=partialRectangle;html=1;whiteSpace=wrap;connectable=0;strokeColor=inherit;overflow=hidden;fillColor=none;top=0;left=0;bottom=0;right=0;pointerEvents=1;fontSize=16;" vertex="1" parent="YwwxXZjCzcob2F3ZB6ca-81">
          <mxGeometry x="244" width="243" height="40" as="geometry">
            <mxRectangle width="243" height="40" as="alternateBounds" />
          </mxGeometry>
        </mxCell>
        <mxCell id="YwwxXZjCzcob2F3ZB6ca-84" style="shape=partialRectangle;html=1;whiteSpace=wrap;connectable=0;strokeColor=inherit;overflow=hidden;fillColor=none;top=0;left=0;bottom=0;right=0;pointerEvents=1;fontSize=16;" vertex="1" parent="YwwxXZjCzcob2F3ZB6ca-81">
          <mxGeometry x="487" width="139" height="40" as="geometry">
            <mxRectangle width="139" height="40" as="alternateBounds" />
          </mxGeometry>
        </mxCell>
        <mxCell id="YwwxXZjCzcob2F3ZB6ca-85" style="shape=partialRectangle;html=1;whiteSpace=wrap;connectable=0;strokeColor=inherit;overflow=hidden;fillColor=none;top=0;left=0;bottom=0;right=0;pointerEvents=1;fontSize=16;" vertex="1" parent="YwwxXZjCzcob2F3ZB6ca-81">
          <mxGeometry x="626" width="168" height="40" as="geometry">
            <mxRectangle width="168" height="40" as="alternateBounds" />
          </mxGeometry>
        </mxCell>
        <mxCell id="YwwxXZjCzcob2F3ZB6ca-86" style="shape=partialRectangle;html=1;whiteSpace=wrap;connectable=0;strokeColor=inherit;overflow=hidden;fillColor=none;top=0;left=0;bottom=0;right=0;pointerEvents=1;fontSize=16;" vertex="1" parent="YwwxXZjCzcob2F3ZB6ca-81">
          <mxGeometry x="794" width="186" height="40" as="geometry">
            <mxRectangle width="186" height="40" as="alternateBounds" />
          </mxGeometry>
        </mxCell>
        <mxCell id="YwwxXZjCzcob2F3ZB6ca-87" style="shape=tableRow;horizontal=0;startSize=0;swimlaneHead=0;swimlaneBody=0;strokeColor=inherit;top=0;left=0;bottom=0;right=0;collapsible=0;dropTarget=0;fillColor=none;points=[[0,0.5],[1,0.5]];portConstraint=eastwest;fontSize=16;" vertex="1" parent="YwwxXZjCzcob2F3ZB6ca-1">
          <mxGeometry y="480" width="979.75" height="40" as="geometry" />
        </mxCell>
        <mxCell id="YwwxXZjCzcob2F3ZB6ca-88" style="shape=partialRectangle;html=1;whiteSpace=wrap;connectable=0;strokeColor=inherit;overflow=hidden;fillColor=none;top=0;left=0;bottom=0;right=0;pointerEvents=1;fontSize=16;" vertex="1" visible="0" parent="YwwxXZjCzcob2F3ZB6ca-87">
          <mxGeometry width="244" height="40" as="geometry">
            <mxRectangle width="244" height="40" as="alternateBounds" />
          </mxGeometry>
        </mxCell>
        <mxCell id="YwwxXZjCzcob2F3ZB6ca-89" value="VEHI#3" style="shape=partialRectangle;html=1;whiteSpace=wrap;connectable=0;strokeColor=inherit;overflow=hidden;fillColor=none;top=0;left=0;bottom=0;right=0;pointerEvents=1;fontSize=16;" vertex="1" parent="YwwxXZjCzcob2F3ZB6ca-87">
          <mxGeometry x="244" width="243" height="40" as="geometry">
            <mxRectangle width="243" height="40" as="alternateBounds" />
          </mxGeometry>
        </mxCell>
        <mxCell id="YwwxXZjCzcob2F3ZB6ca-90" style="shape=partialRectangle;html=1;whiteSpace=wrap;connectable=0;strokeColor=inherit;overflow=hidden;fillColor=none;top=0;left=0;bottom=0;right=0;pointerEvents=1;fontSize=16;" vertex="1" parent="YwwxXZjCzcob2F3ZB6ca-87">
          <mxGeometry x="487" width="139" height="40" as="geometry">
            <mxRectangle width="139" height="40" as="alternateBounds" />
          </mxGeometry>
        </mxCell>
        <mxCell id="YwwxXZjCzcob2F3ZB6ca-91" style="shape=partialRectangle;html=1;whiteSpace=wrap;connectable=0;strokeColor=inherit;overflow=hidden;fillColor=none;top=0;left=0;bottom=0;right=0;pointerEvents=1;fontSize=16;" vertex="1" parent="YwwxXZjCzcob2F3ZB6ca-87">
          <mxGeometry x="626" width="168" height="40" as="geometry">
            <mxRectangle width="168" height="40" as="alternateBounds" />
          </mxGeometry>
        </mxCell>
        <mxCell id="YwwxXZjCzcob2F3ZB6ca-92" style="shape=partialRectangle;html=1;whiteSpace=wrap;connectable=0;strokeColor=inherit;overflow=hidden;fillColor=none;top=0;left=0;bottom=0;right=0;pointerEvents=1;fontSize=16;" vertex="1" parent="YwwxXZjCzcob2F3ZB6ca-87">
          <mxGeometry x="794" width="186" height="40" as="geometry">
            <mxRectangle width="186" height="40" as="alternateBounds" />
          </mxGeometry>
        </mxCell>
        <UserObject label="// Mechanic&#xa;{ &quot;PK&quot;:&quot;M#1&quot;, &quot;SK&quot;:&quot;PROFILE&quot;,&#xa;  &quot;entity&quot;:&quot;Mechanic&quot;,&#xa;  &quot;email&quot;:&quot;mech1@shop.com&quot;, &quot;fullName&quot;:&quot;Alex M.&quot;, &quot;phone&quot;:&quot;+40...&quot;}&#xa;{ &quot;PK&quot;:&quot;M#1&quot;, &quot;SK&quot;:&quot;WKSH#W1&quot;,&#xa;  &quot;entity&quot;:&quot;Workshop&quot;,&#xa;  &quot;workshopId&quot;:&quot;W1&quot;, &quot;fullName&quot;:&quot;Downtown Auto&quot;, &quot;location&quot;:&quot;Cluj&quot;, &quot;description&quot;:&quot;General service&quot;}&#xa;&#xa;&#xa;// Client&#xa;{ &quot;PK&quot;:&quot;C#7&quot;, &quot;SK&quot;:&quot;PROFILE&quot;,&#xa;  &quot;entity&quot;:&quot;Client&quot;,&#xa;  &quot;email&quot;:&quot;client7@mail.com&quot;, &quot;fullName&quot;:&quot;Andrei P.&quot;, &quot;phone&quot;:&quot;+40...&quot;}&#xa;{ &quot;PK&quot;:&quot;C#7&quot;, &quot;SK&quot;:&quot;VEHI#V12&quot;,&#xa;  &quot;entity&quot;:&quot;Vehicle&quot;,&#xa;  &quot;vehicleId&quot;:&quot;V12&quot;, &quot;model&quot;:&quot;Dacia Duster&quot;, &quot;plate&quot;:&quot;CJ-01-ABC&quot;,&#xa;  &quot;vin&quot;:&quot;XXXXXXXXXXXXXX&quot;, &quot;ptiExpiry&quot;:&quot;2026-05-31&quot;}&#xa;&#xa;&#xa;// Appointment (duplicate under both owners)&#xa;{ &quot;PK&quot;:&quot;M#1&quot;, &quot;SK&quot;:&quot;APPO#2025-10-22T14:00#A55&quot;,&#xa;  &quot;entity&quot;:&quot;Appointment&quot;,&#xa;  &quot;appointmentId&quot;:&quot;A55&quot;, &quot;date&quot;:&quot;2025-10-22T14:00&quot;,&#xa;  &quot;clientId&quot;:&quot;C#7&quot;, &quot;vehicleId&quot;:&quot;V12&quot;, &quot;workshopId&quot;:&quot;W1&quot;, &quot;status&quot;:&quot;booked&quot; }&#xa;{ &quot;PK&quot;:&quot;C#7&quot;, &quot;SK&quot;:&quot;APPO#2025-10-22T14:00#A55&quot;,&#xa;  &quot;entity&quot;:&quot;Appointment&quot;,&#xa;  &quot;appointmentId&quot;:&quot;A55&quot;, &quot;date&quot;:&quot;2025-10-22T14:00&quot;,&#xa;  &quot;mechanicId&quot;:&quot;M#1&quot;, &quot;vehicleId&quot;:&quot;V12&quot;, &quot;workshopId&quot;:&quot;W1&quot;, &quot;status&quot;:&quot;booked&quot; }" link="// Mechanic&#xa;{ &quot;PK&quot;:&quot;M#1&quot;, &quot;SK&quot;:&quot;PROFILE&quot;,&#xa;  &quot;entity&quot;:&quot;Mechanic&quot;,&#xa;  &quot;email&quot;:&quot;mech1@shop.com&quot;, &quot;fullName&quot;:&quot;Alex M.&quot;, &quot;phone&quot;:&quot;+40...&quot;}&#xa;{ &quot;PK&quot;:&quot;M#1&quot;, &quot;SK&quot;:&quot;WKSH#W1&quot;,&#xa;  &quot;entity&quot;:&quot;Workshop&quot;,&#xa;  &quot;workshopId&quot;:&quot;W1&quot;, &quot;fullName&quot;:&quot;Downtown Auto&quot;, &quot;location&quot;:&quot;Cluj&quot;, &quot;description&quot;:&quot;General service&quot;}&#xa;&#xa;&#xa;// Client&#xa;{ &quot;PK&quot;:&quot;C#7&quot;, &quot;SK&quot;:&quot;PROFILE&quot;,&#xa;  &quot;entity&quot;:&quot;Client&quot;,&#xa;  &quot;email&quot;:&quot;client7@mail.com&quot;, &quot;fullName&quot;:&quot;Andrei P.&quot;, &quot;phone&quot;:&quot;+40...&quot;}&#xa;{ &quot;PK&quot;:&quot;C#7&quot;, &quot;SK&quot;:&quot;VEHI#V12&quot;,&#xa;  &quot;entity&quot;:&quot;Vehicle&quot;,&#xa;  &quot;vehicleId&quot;:&quot;V12&quot;, &quot;model&quot;:&quot;Dacia Duster&quot;, &quot;plate&quot;:&quot;CJ-01-ABC&quot;,&#xa;  &quot;vin&quot;:&quot;XXXXXXXXXXXXXX&quot;, &quot;ptiExpiry&quot;:&quot;2026-05-31&quot;}&#xa;&#xa;&#xa;// Appointment (duplicate under both owners)&#xa;{ &quot;PK&quot;:&quot;M#1&quot;, &quot;SK&quot;:&quot;APPO#2025-10-22T14:00#A55&quot;,&#xa;  &quot;entity&quot;:&quot;Appointment&quot;,&#xa;  &quot;appointmentId&quot;:&quot;A55&quot;, &quot;date&quot;:&quot;2025-10-22T14:00&quot;,&#xa;  &quot;clientId&quot;:&quot;C#7&quot;, &quot;vehicleId&quot;:&quot;V12&quot;, &quot;workshopId&quot;:&quot;W1&quot;, &quot;status&quot;:&quot;booked&quot; }&#xa;{ &quot;PK&quot;:&quot;C#7&quot;, &quot;SK&quot;:&quot;APPO#2025-10-22T14:00#A55&quot;,&#xa;  &quot;entity&quot;:&quot;Appointment&quot;,&#xa;  &quot;appointmentId&quot;:&quot;A55&quot;, &quot;date&quot;:&quot;2025-10-22T14:00&quot;,&#xa;  &quot;mechanicId&quot;:&quot;M#1&quot;, &quot;vehicleId&quot;:&quot;V12&quot;, &quot;workshopId&quot;:&quot;W1&quot;, &quot;status&quot;:&quot;booked&quot; }" id="YwwxXZjCzcob2F3ZB6ca-167">
          <mxCell style="text;whiteSpace=wrap;strokeWidth=7;" vertex="1" parent="YwwxXZjCzcob2F3ZB6ca-14">
            <mxGeometry x="42" y="651" width="936.35" height="439" as="geometry" />
          </mxCell>
        </UserObject>
        <mxCell id="YwwxXZjCzcob2F3ZB6ca-93" value="" style="shape=table;startSize=0;container=1;collapsible=0;childLayout=tableLayout;fontSize=16;" vertex="1" parent="1">
          <mxGeometry x="956" y="91" width="132" height="200" as="geometry" />
        </mxCell>
        <mxCell id="YwwxXZjCzcob2F3ZB6ca-94" value="" style="shape=tableRow;horizontal=0;startSize=0;swimlaneHead=0;swimlaneBody=0;strokeColor=inherit;top=0;left=0;bottom=0;right=0;collapsible=0;dropTarget=0;fillColor=none;points=[[0,0.5],[1,0.5]];portConstraint=eastwest;fontSize=16;" vertex="1" parent="YwwxXZjCzcob2F3ZB6ca-93">
          <mxGeometry width="132" height="40" as="geometry" />
        </mxCell>
        <mxCell id="YwwxXZjCzcob2F3ZB6ca-95" value="&lt;b&gt;&lt;font style=&quot;font-size: 20px;&quot;&gt;Mechanic&lt;/font&gt;&lt;/b&gt;" style="shape=partialRectangle;html=1;whiteSpace=wrap;connectable=0;strokeColor=inherit;overflow=hidden;fillColor=none;top=0;left=0;bottom=0;right=0;pointerEvents=1;fontSize=16;" vertex="1" parent="YwwxXZjCzcob2F3ZB6ca-94">
          <mxGeometry width="132" height="40" as="geometry">
            <mxRectangle width="132" height="40" as="alternateBounds" />
          </mxGeometry>
        </mxCell>
        <mxCell id="YwwxXZjCzcob2F3ZB6ca-98" value="" style="shape=tableRow;horizontal=0;startSize=0;swimlaneHead=0;swimlaneBody=0;strokeColor=inherit;top=0;left=0;bottom=0;right=0;collapsible=0;dropTarget=0;fillColor=none;points=[[0,0.5],[1,0.5]];portConstraint=eastwest;fontSize=16;" vertex="1" parent="YwwxXZjCzcob2F3ZB6ca-93">
          <mxGeometry y="40" width="132" height="40" as="geometry" />
        </mxCell>
        <mxCell id="YwwxXZjCzcob2F3ZB6ca-99" value="email" style="shape=partialRectangle;html=1;whiteSpace=wrap;connectable=0;strokeColor=inherit;overflow=hidden;fillColor=none;top=0;left=0;bottom=0;right=0;pointerEvents=1;fontSize=16;" vertex="1" parent="YwwxXZjCzcob2F3ZB6ca-98">
          <mxGeometry width="132" height="40" as="geometry">
            <mxRectangle width="132" height="40" as="alternateBounds" />
          </mxGeometry>
        </mxCell>
        <mxCell id="YwwxXZjCzcob2F3ZB6ca-102" value="" style="shape=tableRow;horizontal=0;startSize=0;swimlaneHead=0;swimlaneBody=0;strokeColor=inherit;top=0;left=0;bottom=0;right=0;collapsible=0;dropTarget=0;fillColor=none;points=[[0,0.5],[1,0.5]];portConstraint=eastwest;fontSize=16;" vertex="1" parent="YwwxXZjCzcob2F3ZB6ca-93">
          <mxGeometry y="80" width="132" height="40" as="geometry" />
        </mxCell>
        <mxCell id="YwwxXZjCzcob2F3ZB6ca-103" value="password" style="shape=partialRectangle;html=1;whiteSpace=wrap;connectable=0;strokeColor=inherit;overflow=hidden;fillColor=none;top=0;left=0;bottom=0;right=0;pointerEvents=1;fontSize=16;" vertex="1" parent="YwwxXZjCzcob2F3ZB6ca-102">
          <mxGeometry width="132" height="40" as="geometry">
            <mxRectangle width="132" height="40" as="alternateBounds" />
          </mxGeometry>
        </mxCell>
        <mxCell id="YwwxXZjCzcob2F3ZB6ca-106" style="shape=tableRow;horizontal=0;startSize=0;swimlaneHead=0;swimlaneBody=0;strokeColor=inherit;top=0;left=0;bottom=0;right=0;collapsible=0;dropTarget=0;fillColor=none;points=[[0,0.5],[1,0.5]];portConstraint=eastwest;fontSize=16;" vertex="1" parent="YwwxXZjCzcob2F3ZB6ca-93">
          <mxGeometry y="120" width="132" height="40" as="geometry" />
        </mxCell>
        <mxCell id="YwwxXZjCzcob2F3ZB6ca-107" value="full name" style="shape=partialRectangle;html=1;whiteSpace=wrap;connectable=0;strokeColor=inherit;overflow=hidden;fillColor=none;top=0;left=0;bottom=0;right=0;pointerEvents=1;fontSize=16;" vertex="1" parent="YwwxXZjCzcob2F3ZB6ca-106">
          <mxGeometry width="132" height="40" as="geometry">
            <mxRectangle width="132" height="40" as="alternateBounds" />
          </mxGeometry>
        </mxCell>
        <mxCell id="YwwxXZjCzcob2F3ZB6ca-108" style="shape=tableRow;horizontal=0;startSize=0;swimlaneHead=0;swimlaneBody=0;strokeColor=inherit;top=0;left=0;bottom=0;right=0;collapsible=0;dropTarget=0;fillColor=none;points=[[0,0.5],[1,0.5]];portConstraint=eastwest;fontSize=16;" vertex="1" parent="YwwxXZjCzcob2F3ZB6ca-93">
          <mxGeometry y="160" width="132" height="40" as="geometry" />
        </mxCell>
        <mxCell id="YwwxXZjCzcob2F3ZB6ca-109" value="phone number" style="shape=partialRectangle;html=1;whiteSpace=wrap;connectable=0;strokeColor=inherit;overflow=hidden;fillColor=none;top=0;left=0;bottom=0;right=0;pointerEvents=1;fontSize=16;" vertex="1" parent="YwwxXZjCzcob2F3ZB6ca-108">
          <mxGeometry width="132" height="40" as="geometry">
            <mxRectangle width="132" height="40" as="alternateBounds" />
          </mxGeometry>
        </mxCell>
        <mxCell id="YwwxXZjCzcob2F3ZB6ca-110" value="" style="shape=table;startSize=0;container=1;collapsible=0;childLayout=tableLayout;fontSize=16;" vertex="1" parent="1">
          <mxGeometry x="954" y="322" width="132" height="200" as="geometry" />
        </mxCell>
        <mxCell id="YwwxXZjCzcob2F3ZB6ca-111" value="" style="shape=tableRow;horizontal=0;startSize=0;swimlaneHead=0;swimlaneBody=0;strokeColor=inherit;top=0;left=0;bottom=0;right=0;collapsible=0;dropTarget=0;fillColor=none;points=[[0,0.5],[1,0.5]];portConstraint=eastwest;fontSize=16;" vertex="1" parent="YwwxXZjCzcob2F3ZB6ca-110">
          <mxGeometry width="132" height="40" as="geometry" />
        </mxCell>
        <mxCell id="YwwxXZjCzcob2F3ZB6ca-112" value="&lt;b&gt;&lt;font style=&quot;font-size: 20px;&quot;&gt;Client&lt;/font&gt;&lt;/b&gt;" style="shape=partialRectangle;html=1;whiteSpace=wrap;connectable=0;strokeColor=inherit;overflow=hidden;fillColor=none;top=0;left=0;bottom=0;right=0;pointerEvents=1;fontSize=16;" vertex="1" parent="YwwxXZjCzcob2F3ZB6ca-111">
          <mxGeometry width="132" height="40" as="geometry">
            <mxRectangle width="132" height="40" as="alternateBounds" />
          </mxGeometry>
        </mxCell>
        <mxCell id="YwwxXZjCzcob2F3ZB6ca-113" value="" style="shape=tableRow;horizontal=0;startSize=0;swimlaneHead=0;swimlaneBody=0;strokeColor=inherit;top=0;left=0;bottom=0;right=0;collapsible=0;dropTarget=0;fillColor=none;points=[[0,0.5],[1,0.5]];portConstraint=eastwest;fontSize=16;" vertex="1" parent="YwwxXZjCzcob2F3ZB6ca-110">
          <mxGeometry y="40" width="132" height="40" as="geometry" />
        </mxCell>
        <mxCell id="YwwxXZjCzcob2F3ZB6ca-114" value="email" style="shape=partialRectangle;html=1;whiteSpace=wrap;connectable=0;strokeColor=inherit;overflow=hidden;fillColor=none;top=0;left=0;bottom=0;right=0;pointerEvents=1;fontSize=16;" vertex="1" parent="YwwxXZjCzcob2F3ZB6ca-113">
          <mxGeometry width="132" height="40" as="geometry">
            <mxRectangle width="132" height="40" as="alternateBounds" />
          </mxGeometry>
        </mxCell>
        <mxCell id="YwwxXZjCzcob2F3ZB6ca-115" value="" style="shape=tableRow;horizontal=0;startSize=0;swimlaneHead=0;swimlaneBody=0;strokeColor=inherit;top=0;left=0;bottom=0;right=0;collapsible=0;dropTarget=0;fillColor=none;points=[[0,0.5],[1,0.5]];portConstraint=eastwest;fontSize=16;" vertex="1" parent="YwwxXZjCzcob2F3ZB6ca-110">
          <mxGeometry y="80" width="132" height="40" as="geometry" />
        </mxCell>
        <mxCell id="YwwxXZjCzcob2F3ZB6ca-116" value="password" style="shape=partialRectangle;html=1;whiteSpace=wrap;connectable=0;strokeColor=inherit;overflow=hidden;fillColor=none;top=0;left=0;bottom=0;right=0;pointerEvents=1;fontSize=16;" vertex="1" parent="YwwxXZjCzcob2F3ZB6ca-115">
          <mxGeometry width="132" height="40" as="geometry">
            <mxRectangle width="132" height="40" as="alternateBounds" />
          </mxGeometry>
        </mxCell>
        <mxCell id="YwwxXZjCzcob2F3ZB6ca-117" style="shape=tableRow;horizontal=0;startSize=0;swimlaneHead=0;swimlaneBody=0;strokeColor=inherit;top=0;left=0;bottom=0;right=0;collapsible=0;dropTarget=0;fillColor=none;points=[[0,0.5],[1,0.5]];portConstraint=eastwest;fontSize=16;" vertex="1" parent="YwwxXZjCzcob2F3ZB6ca-110">
          <mxGeometry y="120" width="132" height="40" as="geometry" />
        </mxCell>
        <mxCell id="YwwxXZjCzcob2F3ZB6ca-118" value="full name" style="shape=partialRectangle;html=1;whiteSpace=wrap;connectable=0;strokeColor=inherit;overflow=hidden;fillColor=none;top=0;left=0;bottom=0;right=0;pointerEvents=1;fontSize=16;" vertex="1" parent="YwwxXZjCzcob2F3ZB6ca-117">
          <mxGeometry width="132" height="40" as="geometry">
            <mxRectangle width="132" height="40" as="alternateBounds" />
          </mxGeometry>
        </mxCell>
        <mxCell id="YwwxXZjCzcob2F3ZB6ca-119" style="shape=tableRow;horizontal=0;startSize=0;swimlaneHead=0;swimlaneBody=0;strokeColor=inherit;top=0;left=0;bottom=0;right=0;collapsible=0;dropTarget=0;fillColor=none;points=[[0,0.5],[1,0.5]];portConstraint=eastwest;fontSize=16;" vertex="1" parent="YwwxXZjCzcob2F3ZB6ca-110">
          <mxGeometry y="160" width="132" height="40" as="geometry" />
        </mxCell>
        <mxCell id="YwwxXZjCzcob2F3ZB6ca-120" value="phone number" style="shape=partialRectangle;html=1;whiteSpace=wrap;connectable=0;strokeColor=inherit;overflow=hidden;fillColor=none;top=0;left=0;bottom=0;right=0;pointerEvents=1;fontSize=16;" vertex="1" parent="YwwxXZjCzcob2F3ZB6ca-119">
          <mxGeometry width="132" height="40" as="geometry">
            <mxRectangle width="132" height="40" as="alternateBounds" />
          </mxGeometry>
        </mxCell>
        <mxCell id="YwwxXZjCzcob2F3ZB6ca-121" value="" style="shape=table;startSize=0;container=1;collapsible=0;childLayout=tableLayout;fontSize=16;" vertex="1" parent="1">
          <mxGeometry x="1120" y="87" width="132" height="160" as="geometry" />
        </mxCell>
        <mxCell id="YwwxXZjCzcob2F3ZB6ca-122" value="" style="shape=tableRow;horizontal=0;startSize=0;swimlaneHead=0;swimlaneBody=0;strokeColor=inherit;top=0;left=0;bottom=0;right=0;collapsible=0;dropTarget=0;fillColor=none;points=[[0,0.5],[1,0.5]];portConstraint=eastwest;fontSize=16;" vertex="1" parent="YwwxXZjCzcob2F3ZB6ca-121">
          <mxGeometry width="132" height="40" as="geometry" />
        </mxCell>
        <mxCell id="YwwxXZjCzcob2F3ZB6ca-123" value="&lt;b&gt;&lt;font style=&quot;font-size: 20px;&quot;&gt;Workshop&lt;/font&gt;&lt;/b&gt;" style="shape=partialRectangle;html=1;whiteSpace=wrap;connectable=0;strokeColor=inherit;overflow=hidden;fillColor=none;top=0;left=0;bottom=0;right=0;pointerEvents=1;fontSize=16;" vertex="1" parent="YwwxXZjCzcob2F3ZB6ca-122">
          <mxGeometry width="132" height="40" as="geometry">
            <mxRectangle width="132" height="40" as="alternateBounds" />
          </mxGeometry>
        </mxCell>
        <mxCell id="YwwxXZjCzcob2F3ZB6ca-124" value="" style="shape=tableRow;horizontal=0;startSize=0;swimlaneHead=0;swimlaneBody=0;strokeColor=inherit;top=0;left=0;bottom=0;right=0;collapsible=0;dropTarget=0;fillColor=none;points=[[0,0.5],[1,0.5]];portConstraint=eastwest;fontSize=16;" vertex="1" parent="YwwxXZjCzcob2F3ZB6ca-121">
          <mxGeometry y="40" width="132" height="40" as="geometry" />
        </mxCell>
        <mxCell id="YwwxXZjCzcob2F3ZB6ca-125" value="full name" style="shape=partialRectangle;html=1;whiteSpace=wrap;connectable=0;strokeColor=inherit;overflow=hidden;fillColor=none;top=0;left=0;bottom=0;right=0;pointerEvents=1;fontSize=16;" vertex="1" parent="YwwxXZjCzcob2F3ZB6ca-124">
          <mxGeometry width="132" height="40" as="geometry">
            <mxRectangle width="132" height="40" as="alternateBounds" />
          </mxGeometry>
        </mxCell>
        <mxCell id="YwwxXZjCzcob2F3ZB6ca-126" value="" style="shape=tableRow;horizontal=0;startSize=0;swimlaneHead=0;swimlaneBody=0;strokeColor=inherit;top=0;left=0;bottom=0;right=0;collapsible=0;dropTarget=0;fillColor=none;points=[[0,0.5],[1,0.5]];portConstraint=eastwest;fontSize=16;" vertex="1" parent="YwwxXZjCzcob2F3ZB6ca-121">
          <mxGeometry y="80" width="132" height="40" as="geometry" />
        </mxCell>
        <mxCell id="YwwxXZjCzcob2F3ZB6ca-127" value="location" style="shape=partialRectangle;html=1;whiteSpace=wrap;connectable=0;strokeColor=inherit;overflow=hidden;fillColor=none;top=0;left=0;bottom=0;right=0;pointerEvents=1;fontSize=16;" vertex="1" parent="YwwxXZjCzcob2F3ZB6ca-126">
          <mxGeometry width="132" height="40" as="geometry">
            <mxRectangle width="132" height="40" as="alternateBounds" />
          </mxGeometry>
        </mxCell>
        <mxCell id="YwwxXZjCzcob2F3ZB6ca-144" style="shape=tableRow;horizontal=0;startSize=0;swimlaneHead=0;swimlaneBody=0;strokeColor=inherit;top=0;left=0;bottom=0;right=0;collapsible=0;dropTarget=0;fillColor=none;points=[[0,0.5],[1,0.5]];portConstraint=eastwest;fontSize=16;" vertex="1" parent="YwwxXZjCzcob2F3ZB6ca-121">
          <mxGeometry y="120" width="132" height="40" as="geometry" />
        </mxCell>
        <mxCell id="YwwxXZjCzcob2F3ZB6ca-145" value="description" style="shape=partialRectangle;html=1;whiteSpace=wrap;connectable=0;strokeColor=inherit;overflow=hidden;fillColor=none;top=0;left=0;bottom=0;right=0;pointerEvents=1;fontSize=16;" vertex="1" parent="YwwxXZjCzcob2F3ZB6ca-144">
          <mxGeometry width="132" height="40" as="geometry">
            <mxRectangle width="132" height="40" as="alternateBounds" />
          </mxGeometry>
        </mxCell>
        <mxCell id="YwwxXZjCzcob2F3ZB6ca-133" value="" style="shape=table;startSize=0;container=1;collapsible=0;childLayout=tableLayout;fontSize=16;" vertex="1" parent="1">
          <mxGeometry x="1140" y="322" width="147" height="200" as="geometry" />
        </mxCell>
        <mxCell id="YwwxXZjCzcob2F3ZB6ca-134" value="" style="shape=tableRow;horizontal=0;startSize=0;swimlaneHead=0;swimlaneBody=0;strokeColor=inherit;top=0;left=0;bottom=0;right=0;collapsible=0;dropTarget=0;fillColor=none;points=[[0,0.5],[1,0.5]];portConstraint=eastwest;fontSize=16;" vertex="1" parent="YwwxXZjCzcob2F3ZB6ca-133">
          <mxGeometry width="147" height="40" as="geometry" />
        </mxCell>
        <mxCell id="YwwxXZjCzcob2F3ZB6ca-135" value="&lt;b&gt;&lt;font style=&quot;font-size: 20px;&quot;&gt;Vehicle&lt;/font&gt;&lt;/b&gt;" style="shape=partialRectangle;html=1;whiteSpace=wrap;connectable=0;strokeColor=inherit;overflow=hidden;fillColor=none;top=0;left=0;bottom=0;right=0;pointerEvents=1;fontSize=16;" vertex="1" parent="YwwxXZjCzcob2F3ZB6ca-134">
          <mxGeometry width="147" height="40" as="geometry">
            <mxRectangle width="147" height="40" as="alternateBounds" />
          </mxGeometry>
        </mxCell>
        <mxCell id="YwwxXZjCzcob2F3ZB6ca-136" value="" style="shape=tableRow;horizontal=0;startSize=0;swimlaneHead=0;swimlaneBody=0;strokeColor=inherit;top=0;left=0;bottom=0;right=0;collapsible=0;dropTarget=0;fillColor=none;points=[[0,0.5],[1,0.5]];portConstraint=eastwest;fontSize=16;" vertex="1" parent="YwwxXZjCzcob2F3ZB6ca-133">
          <mxGeometry y="40" width="147" height="40" as="geometry" />
        </mxCell>
        <mxCell id="YwwxXZjCzcob2F3ZB6ca-137" value="model" style="shape=partialRectangle;html=1;whiteSpace=wrap;connectable=0;strokeColor=inherit;overflow=hidden;fillColor=none;top=0;left=0;bottom=0;right=0;pointerEvents=1;fontSize=16;" vertex="1" parent="YwwxXZjCzcob2F3ZB6ca-136">
          <mxGeometry width="147" height="40" as="geometry">
            <mxRectangle width="147" height="40" as="alternateBounds" />
          </mxGeometry>
        </mxCell>
        <mxCell id="YwwxXZjCzcob2F3ZB6ca-138" value="" style="shape=tableRow;horizontal=0;startSize=0;swimlaneHead=0;swimlaneBody=0;strokeColor=inherit;top=0;left=0;bottom=0;right=0;collapsible=0;dropTarget=0;fillColor=none;points=[[0,0.5],[1,0.5]];portConstraint=eastwest;fontSize=16;" vertex="1" parent="YwwxXZjCzcob2F3ZB6ca-133">
          <mxGeometry y="80" width="147" height="40" as="geometry" />
        </mxCell>
        <mxCell id="YwwxXZjCzcob2F3ZB6ca-139" value="plate number" style="shape=partialRectangle;html=1;whiteSpace=wrap;connectable=0;strokeColor=inherit;overflow=hidden;fillColor=none;top=0;left=0;bottom=0;right=0;pointerEvents=1;fontSize=16;" vertex="1" parent="YwwxXZjCzcob2F3ZB6ca-138">
          <mxGeometry width="147" height="40" as="geometry">
            <mxRectangle width="147" height="40" as="alternateBounds" />
          </mxGeometry>
        </mxCell>
        <mxCell id="YwwxXZjCzcob2F3ZB6ca-140" style="shape=tableRow;horizontal=0;startSize=0;swimlaneHead=0;swimlaneBody=0;strokeColor=inherit;top=0;left=0;bottom=0;right=0;collapsible=0;dropTarget=0;fillColor=none;points=[[0,0.5],[1,0.5]];portConstraint=eastwest;fontSize=16;" vertex="1" parent="YwwxXZjCzcob2F3ZB6ca-133">
          <mxGeometry y="120" width="147" height="40" as="geometry" />
        </mxCell>
        <mxCell id="YwwxXZjCzcob2F3ZB6ca-141" value="vin" style="shape=partialRectangle;html=1;whiteSpace=wrap;connectable=0;strokeColor=inherit;overflow=hidden;fillColor=none;top=0;left=0;bottom=0;right=0;pointerEvents=1;fontSize=16;" vertex="1" parent="YwwxXZjCzcob2F3ZB6ca-140">
          <mxGeometry width="147" height="40" as="geometry">
            <mxRectangle width="147" height="40" as="alternateBounds" />
          </mxGeometry>
        </mxCell>
        <mxCell id="YwwxXZjCzcob2F3ZB6ca-142" style="shape=tableRow;horizontal=0;startSize=0;swimlaneHead=0;swimlaneBody=0;strokeColor=inherit;top=0;left=0;bottom=0;right=0;collapsible=0;dropTarget=0;fillColor=none;points=[[0,0.5],[1,0.5]];portConstraint=eastwest;fontSize=16;" vertex="1" parent="YwwxXZjCzcob2F3ZB6ca-133">
          <mxGeometry y="160" width="147" height="40" as="geometry" />
        </mxCell>
        <mxCell id="YwwxXZjCzcob2F3ZB6ca-143" value="pti expiration date" style="shape=partialRectangle;html=1;whiteSpace=wrap;connectable=0;strokeColor=inherit;overflow=hidden;fillColor=none;top=0;left=0;bottom=0;right=0;pointerEvents=1;fontSize=16;" vertex="1" parent="YwwxXZjCzcob2F3ZB6ca-142">
          <mxGeometry width="147" height="40" as="geometry">
            <mxRectangle width="147" height="40" as="alternateBounds" />
          </mxGeometry>
        </mxCell>
        <mxCell id="YwwxXZjCzcob2F3ZB6ca-155" value="" style="shape=table;startSize=0;container=1;collapsible=0;childLayout=tableLayout;fontSize=16;" vertex="1" parent="1">
          <mxGeometry x="1368" y="267" width="132" height="200" as="geometry" />
        </mxCell>
        <mxCell id="YwwxXZjCzcob2F3ZB6ca-156" value="" style="shape=tableRow;horizontal=0;startSize=0;swimlaneHead=0;swimlaneBody=0;strokeColor=inherit;top=0;left=0;bottom=0;right=0;collapsible=0;dropTarget=0;fillColor=none;points=[[0,0.5],[1,0.5]];portConstraint=eastwest;fontSize=16;" vertex="1" parent="YwwxXZjCzcob2F3ZB6ca-155">
          <mxGeometry width="132" height="40" as="geometry" />
        </mxCell>
        <mxCell id="YwwxXZjCzcob2F3ZB6ca-157" value="&lt;b&gt;&lt;font style=&quot;font-size: 20px;&quot;&gt;Appoiment&lt;/font&gt;&lt;/b&gt;" style="shape=partialRectangle;html=1;whiteSpace=wrap;connectable=0;strokeColor=inherit;overflow=hidden;fillColor=none;top=0;left=0;bottom=0;right=0;pointerEvents=1;fontSize=16;" vertex="1" parent="YwwxXZjCzcob2F3ZB6ca-156">
          <mxGeometry width="132" height="40" as="geometry">
            <mxRectangle width="132" height="40" as="alternateBounds" />
          </mxGeometry>
        </mxCell>
        <mxCell id="YwwxXZjCzcob2F3ZB6ca-158" value="" style="shape=tableRow;horizontal=0;startSize=0;swimlaneHead=0;swimlaneBody=0;strokeColor=inherit;top=0;left=0;bottom=0;right=0;collapsible=0;dropTarget=0;fillColor=none;points=[[0,0.5],[1,0.5]];portConstraint=eastwest;fontSize=16;" vertex="1" parent="YwwxXZjCzcob2F3ZB6ca-155">
          <mxGeometry y="40" width="132" height="40" as="geometry" />
        </mxCell>
        <mxCell id="YwwxXZjCzcob2F3ZB6ca-159" value="mechanic" style="shape=partialRectangle;html=1;whiteSpace=wrap;connectable=0;strokeColor=inherit;overflow=hidden;fillColor=none;top=0;left=0;bottom=0;right=0;pointerEvents=1;fontSize=16;" vertex="1" parent="YwwxXZjCzcob2F3ZB6ca-158">
          <mxGeometry width="132" height="40" as="geometry">
            <mxRectangle width="132" height="40" as="alternateBounds" />
          </mxGeometry>
        </mxCell>
        <mxCell id="YwwxXZjCzcob2F3ZB6ca-160" value="" style="shape=tableRow;horizontal=0;startSize=0;swimlaneHead=0;swimlaneBody=0;strokeColor=inherit;top=0;left=0;bottom=0;right=0;collapsible=0;dropTarget=0;fillColor=none;points=[[0,0.5],[1,0.5]];portConstraint=eastwest;fontSize=16;" vertex="1" parent="YwwxXZjCzcob2F3ZB6ca-155">
          <mxGeometry y="80" width="132" height="40" as="geometry" />
        </mxCell>
        <mxCell id="YwwxXZjCzcob2F3ZB6ca-161" value="client" style="shape=partialRectangle;html=1;whiteSpace=wrap;connectable=0;strokeColor=inherit;overflow=hidden;fillColor=none;top=0;left=0;bottom=0;right=0;pointerEvents=1;fontSize=16;" vertex="1" parent="YwwxXZjCzcob2F3ZB6ca-160">
          <mxGeometry width="132" height="40" as="geometry">
            <mxRectangle width="132" height="40" as="alternateBounds" />
          </mxGeometry>
        </mxCell>
        <mxCell id="YwwxXZjCzcob2F3ZB6ca-162" style="shape=tableRow;horizontal=0;startSize=0;swimlaneHead=0;swimlaneBody=0;strokeColor=inherit;top=0;left=0;bottom=0;right=0;collapsible=0;dropTarget=0;fillColor=none;points=[[0,0.5],[1,0.5]];portConstraint=eastwest;fontSize=16;" vertex="1" parent="YwwxXZjCzcob2F3ZB6ca-155">
          <mxGeometry y="120" width="132" height="40" as="geometry" />
        </mxCell>
        <mxCell id="YwwxXZjCzcob2F3ZB6ca-163" value="workshop" style="shape=partialRectangle;html=1;whiteSpace=wrap;connectable=0;strokeColor=inherit;overflow=hidden;fillColor=none;top=0;left=0;bottom=0;right=0;pointerEvents=1;fontSize=16;" vertex="1" parent="YwwxXZjCzcob2F3ZB6ca-162">
          <mxGeometry width="132" height="40" as="geometry">
            <mxRectangle width="132" height="40" as="alternateBounds" />
          </mxGeometry>
        </mxCell>
        <mxCell id="YwwxXZjCzcob2F3ZB6ca-164" style="shape=tableRow;horizontal=0;startSize=0;swimlaneHead=0;swimlaneBody=0;strokeColor=inherit;top=0;left=0;bottom=0;right=0;collapsible=0;dropTarget=0;fillColor=none;points=[[0,0.5],[1,0.5]];portConstraint=eastwest;fontSize=16;" vertex="1" parent="YwwxXZjCzcob2F3ZB6ca-155">
          <mxGeometry y="160" width="132" height="40" as="geometry" />
        </mxCell>
        <mxCell id="YwwxXZjCzcob2F3ZB6ca-165" value="date" style="shape=partialRectangle;html=1;whiteSpace=wrap;connectable=0;strokeColor=inherit;overflow=hidden;fillColor=none;top=0;left=0;bottom=0;right=0;pointerEvents=1;fontSize=16;" vertex="1" parent="YwwxXZjCzcob2F3ZB6ca-164">
          <mxGeometry width="132" height="40" as="geometry">
            <mxRectangle width="132" height="40" as="alternateBounds" />
          </mxGeometry>
        </mxCell>
      </root>
    </mxGraphModel>
  </diagram>
</mxfile>
